<?xml version="1.0" encoding="utf-8"?>
<!-- Generator: Adobe Illustrator 18.1.1, SVG Export Plug-In . SVG Version: 6.00 Build 0)  -->
<svg version="1.1" xmlns="http://www.w3.org/2000/svg" xmlns:xlink="http://www.w3.org/1999/xlink" x="0px" y="0px"
	 viewBox="0 0 7 11" enable-background="new 0 0 7 11" xml:space="preserve">
<g id="header">
</g>
<g id="nav-mob">
	<g id="Calque_6_-_copie">
	</g>
	<g id="Calque_12_-_copie">
	</g>
	<g id="Calque_5_-_copie">
	</g>
	<g id="Calque_4_-_copie">
	</g>
	<g id="Calque_3_-_copie">
	</g>
	<g id="Calque_2_-_copie">
		<g id="Calque_7_-_copie">
			<defs>
				<path id="SVGID_1_" d="M-42.3-246.5v30h30v-30H-42.3z M-17-230.1c0,1.8-1.4,3.2-3.1,3.2H-28l-5.6,4.9l-0.6-4.9
					c-1,0-1.8-0.8-1.8-1.8v-10.4c0-1,0.8-1.8,1.8-1.8h15.4c1,0,1.8,0.8,1.8,1.8V-230.1z"/>
			</defs>
			<clipPath id="SVGID_2_">
				<use xlink:href="#SVGID_1_"  overflow="visible"/>
			</clipPath>
		</g>
	</g>
	<g id="Calque_22">
	</g>
</g>
<g id="nav">
	<g id="Calque_6">
	</g>
	<g id="Calque_12">
	</g>
	<g id="Calque_5">
	</g>
	<g id="Calque_4">
	</g>
	<g id="Calque_3">
	</g>
	<g id="Calque_2">
		<g id="Calque_7">
			<defs>
				<path id="SVGID_3_" d="M-49-163v43h43v-43H-49z M-13.3-138.7c0,2.5-2,4.5-4.5,4.5h-11.4l-8.1,6.9l-0.9-6.9
					c-1.4,0-2.6-1.2-2.6-2.6v-14.6c0-1.4,1.2-2.6,2.6-2.6h22.4c1.4,0,2.6,1.2,2.6,2.6V-138.7z"/>
			</defs>
			<clipPath id="SVGID_4_">
				<use xlink:href="#SVGID_3_"  overflow="visible"/>
			</clipPath>
		</g>
	</g>
</g>
<g id="btn">
</g>
<g id="table_x5F_circle">
</g>
<g id="status">
</g>
<g id="arrow">
	<polygon fill="#D9D9D9" points="3.3,5.5 0,9 1.9,11 7,5.5 1.9,0 0,2 	"/>
</g>
<g id="recap">
	<g id="Calque_24">
	</g>
	<g id="Calque_25">
	</g>
	<g id="Calque_26">
	</g>
	<g id="Calque_27">
	</g>
</g>
</svg>
