<?xml version="1.0" encoding="utf-8"?>
<!-- Generator: Adobe Illustrator 18.1.1, SVG Export Plug-In . SVG Version: 6.00 Build 0)  -->
<svg version="1.1" xmlns="http://www.w3.org/2000/svg" xmlns:xlink="http://www.w3.org/1999/xlink" x="0px" y="0px"
	 viewBox="0 0 17 17" enable-background="new 0 0 17 17" xml:space="preserve">
<g id="Calque_1">
	<g>
		<g>
			<path fill="#01AFEF" d="M15.3,1.7c-2.1-2-5.2-2.3-7-0.5C6.7,2.6,6.7,5,7.9,7L0,14.7l1.8,1.8l1-0.9L4.3,17l0.9-0.8l-0.4-0.4
				l0.4-0.4l0.4,0.4l0.9-0.9L5,13.4l4.8-4.7c2,1.3,4.5,1.2,6-0.3C17.6,6.8,17.4,3.7,15.3,1.7z M14.5,7.3c-0.8,0.8-2,0.9-2.7,0.2
				c-0.4-0.3-0.5-0.8-0.5-1.3c0-0.4-0.3-0.7-0.7-0.7c-0.5,0-1-0.1-1.4-0.4C8.6,4.4,8.7,3.2,9.5,2.4c0.8-0.8,2-0.9,2.7-0.2
				c0.4,0.3,0.5,0.8,0.5,1.3c0,0.4,0.3,0.7,0.7,0.7c0.5,0,1,0.1,1.4,0.4C15.5,5.3,15.4,6.5,14.5,7.3z"/>
		</g>
	</g>
</g>
<g id="Calque_2">
</g>
<g id="Calque_3">
</g>
<g id="Calque_4">
</g>
<g id="Calque_5">
</g>
</svg>
