<?xml version="1.0" encoding="utf-8"?>
<!-- Generator: Adobe Illustrator 18.1.1, SVG Export Plug-In . SVG Version: 6.00 Build 0)  -->
<svg version="1.1" xmlns="http://www.w3.org/2000/svg" xmlns:xlink="http://www.w3.org/1999/xlink" x="0px" y="0px"
	 viewBox="0 0 50 50" enable-background="new 0 0 50 50" xml:space="preserve">
<g id="Calque_1">
</g>
<g id="Calque_2">
</g>
<g id="Calque_3">
</g>
<g id="Calque_4">
</g>
<g id="Calque_5">
	<path id="linkedin-icon_1_" fill="#005FAB" d="M12.2,6.2c0,3.4-2.7,6.2-6.1,6.2S0,9.5,0,6.2C0,2.8,2.7,0,6.1,0
		C9.5,0,12.2,2.8,12.2,6.2z M11.3,16.7H1V50h10.3V16.7z M27.8,16.7h-9.9V50h9.9c0,0,0-12.4,0-17.5c0-4.7,2.2-7.5,6.3-7.5
		c3.8,0,5.6,2.7,5.6,7.5c0,4.8,0,17.5,0,17.5H50c0,0,0-12.2,0-21.1s-5.1-13.2-12.1-13.2s-10,5.5-10,5.5L27.8,16.7L27.8,16.7z"/>
</g>
</svg>
