<?xml version="1.0" encoding="utf-8"?>
<!-- Generator: Adobe Illustrator 18.1.1, SVG Export Plug-In . SVG Version: 6.00 Build 0)  -->
<svg version="1.1" xmlns="http://www.w3.org/2000/svg" xmlns:xlink="http://www.w3.org/1999/xlink" x="0px" y="0px"
	 viewBox="0 0 50 50" enable-background="new 0 0 50 50" xml:space="preserve">
<g id="Calque_1">
</g>
<g id="Calque_2">
</g>
<g id="Calque_3">
</g>
<g id="Calque_4">
</g>
<g id="Calque_5">
	<path id="facebook-icon_4_" fill="#005FAB" d="M21.9,20.7h-2.6v4.3h2.6v12.6h5V24.9h3.5l0.4-4.2h-3.9c0,0,0-1.6,0-2.4
		c0-1,0.2-1.4,1.2-1.4c0.8,0,2.7,0,2.7,0v-4.4c0,0-2.9,0-3.5,0c-3.7,0-5.4,1.6-5.4,4.8C21.9,20.1,21.9,20.7,21.9,20.7z"/>
	<g>
		<path fill="#005FAB" d="M25,1c13.2,0,24,10.8,24,24S38.2,49,25,49S1,38.2,1,25S11.8,1,25,1 M25,0C11.2,0,0,11.2,0,25
			c0,13.8,11.2,25,25,25s25-11.2,25-25C50,11.2,38.8,0,25,0L25,0z"/>
	</g>
</g>
</svg>
