<?xml version="1.0" encoding="utf-8"?>
<!-- Generator: Adobe Illustrator 18.1.1, SVG Export Plug-In . SVG Version: 6.00 Build 0)  -->
<svg version="1.1" xmlns="http://www.w3.org/2000/svg" xmlns:xlink="http://www.w3.org/1999/xlink" x="0px" y="0px"
	 viewBox="0 0 50 50" enable-background="new 0 0 50 50" xml:space="preserve">
<g id="Calque_1">
</g>
<g id="Calque_2">
</g>
<g id="Calque_3">
</g>
<g id="Calque_4">
</g>
<g id="Calque_5">
	<path id="youtube-icon" fill="#B8B8B8" d="M9.5,0h3l2.1,7.7L16.5,0h3.1l-3.5,11.5v7.8h-3v-7.8L9.5,0z M19.5,15.7
		c0,2.5,1.3,3.8,3.9,3.8c2.2,0,3.9-1.4,3.9-3.8v-7c0-2.2-1.7-3.8-3.9-3.8c-2.4,0-3.9,1.5-3.9,3.8V15.7z M22.2,9
		c0-0.8,0.4-1.4,1.1-1.4c0.8,0,1.2,0.6,1.2,1.4v6.6c0,0.8-0.4,1.3-1.1,1.3c-0.7,0-1.2-0.6-1.2-1.3V9z M34.5,5.1v10.8
		c-0.3,0.4-1.1,1.1-1.6,1.1c-0.6,0-0.7-0.4-0.7-1V5.1h-2.7V17c0,1.4,0.4,2.5,1.9,2.5c0.8,0,1.9-0.4,3.1-1.8v1.6h2.7V5.1H34.5z
		 M30.6,34.2c0.2,0.2,0.3,0.6,0.3,1v7c0,0.4-0.1,0.7-0.2,0.9c-0.3,0.4-0.9,0.3-1.3,0.1c-0.2-0.1-0.4-0.3-0.6-0.5v-8.4
		c0.2-0.2,0.3-0.3,0.5-0.4C29.7,33.8,30.3,33.8,30.6,34.2z M39.2,33.9c-0.9,0-1.1,0.7-1.1,1.6v1.4h2.3v-1.4
		C40.3,34.6,40.1,33.9,39.2,33.9z M47,43.9c0,3.4-2.8,6.1-6.2,6.1H9.2C5.8,50,3,47.3,3,43.9V28.6c0-3.4,2.8-6.1,6.2-6.1h31.7
		c3.4,0,6.2,2.7,6.2,6.1L47,43.9L47,43.9z M13.4,29.7h3v-2.7H7.5v2.7h3v15.7h2.9L13.4,29.7L13.4,29.7z M23.6,31.9h-2.6v10.3
		c-0.3,0.4-1,1-1.5,1c-0.5,0-0.7-0.4-0.7-0.9V31.9h-2.6v11.3c0,2.8,1.9,2.8,3.3,2c0.5-0.3,1-0.7,1.5-1.3v1.5h2.6V31.9z M33.5,35.1
		c0-1.8-0.6-3.4-2.5-3.4c-0.9,0-1.7,0.6-2.3,1.3v-5.9h-2.6v18.4h2.6v-1c0.7,0.9,1.5,1.2,2.4,1.2c1.7,0,2.3-1.3,2.3-3V35.1z
		 M42.9,35.5c0-2.4-1.2-4-3.6-4c-2.3,0-3.9,1.6-3.9,4v6.1c0,2.4,1.2,4.2,3.7,4.2c2.7,0,3.8-1.6,3.8-4.2v-1h-2.6v0.9
		c0,1.2-0.1,1.9-1.1,1.9c-1,0-1.1-0.9-1.1-1.9V39h4.9L42.9,35.5L42.9,35.5z"/>
</g>
</svg>
