<?xml version="1.0" encoding="utf-8"?>
<!-- Generator: Adobe Illustrator 18.1.1, SVG Export Plug-In . SVG Version: 6.00 Build 0)  -->
<svg version="1.1" xmlns="http://www.w3.org/2000/svg" xmlns:xlink="http://www.w3.org/1999/xlink" x="0px" y="0px"
	 viewBox="0 0 38 38" enable-background="new 0 0 38 38" xml:space="preserve">
<g id="Calque_1">
	<path fill="#01AFEF" d="M20,25.5c0,0.6-0.4,1-1,1c-0.6,0-1-0.4-1-1s0.4-1,1-1C19.6,24.5,20,24.9,20,25.5z M23.3,18.3
		c-0.6,0.8-1.1,1.2-1.6,1.6c-0.5,0.4-0.9,0.7-1.3,1.4c-0.1,0.2-0.2,0.4-0.2,0.5c-0.1,0.4-0.5,0.7-0.9,0.7h0c-0.3,0-0.6-0.2-0.8-0.4
		c-0.2-0.3-0.2-0.6-0.1-0.9c0.1-0.3,0.2-0.6,0.5-1c0.6-0.9,1.2-1.4,1.8-1.9c0.4-0.3,0.8-0.7,1.3-1.2c0.3-0.4,0.5-1.5,0-2.4
		c-0.4-0.8-1.2-1.2-2.4-1.2c-1.2,0-2.1,0.3-2.7,0.9c-0.7,0.8-0.7,2-0.7,2v0.1c0,0.3-0.1,0.5-0.3,0.7c-0.2,0.2-0.4,0.3-0.7,0.3h0
		c-0.6,0-1-0.4-1-1v0c0,0-0.2-1.9,1.2-3.4c0.9-1,2.4-1.6,4.2-1.6c2.6,0,3.7,1.5,4.2,2.3C24.2,15.3,24.1,17.2,23.3,18.3z"/>
	<g>
		<path fill="#80E7FF" d="M19,1c9.9,0,18,8.1,18,18s-8.1,18-18,18S1,28.9,1,19S9.1,1,19,1 M19,0C8.5,0,0,8.5,0,19s8.5,19,19,19
			s19-8.5,19-19S29.5,0,19,0L19,0z"/>
	</g>
</g>
<g id="Calque_2">
</g>
<g id="Calque_3">
</g>
<g id="Calque_4">
</g>
<g id="Calque_5">
</g>
</svg>
