<?xml version="1.0" encoding="utf-8"?>
<!-- Generator: Adobe Illustrator 18.1.1, SVG Export Plug-In . SVG Version: 6.00 Build 0)  -->
<svg version="1.1" xmlns="http://www.w3.org/2000/svg" xmlns:xlink="http://www.w3.org/1999/xlink" x="0px" y="0px"
	 viewBox="0 0 50 50" enable-background="new 0 0 50 50" xml:space="preserve">
<g id="Calque_1">
</g>
<g id="Calque_2">
</g>
<g id="Calque_3">
</g>
<g id="Calque_4">
</g>
<g id="Calque_5">
	<path id="twitter-icon_2_" fill="#D2D2D2" d="M37.5,17.2c-0.9,0.4-1.9,0.7-2.9,0.8c1.1-0.6,1.9-1.7,2.3-2.9c-1,0.6-2.1,1-3.3,1.3
		c-0.9-1-2.3-1.6-3.7-1.6c-3.3,0-5.7,3.1-5,6.4c-4.3-0.2-8-2.3-10.6-5.4c-1.3,2.3-0.7,5.4,1.6,6.9c-0.8,0-1.6-0.3-2.3-0.6
		c-0.1,2.4,1.6,4.6,4.1,5.1c-0.7,0.2-1.5,0.2-2.3,0.1c0.7,2.1,2.5,3.6,4.8,3.6c-2.2,1.7-4.9,2.5-7.6,2.1c2.3,1.5,5,2.3,7.9,2.3
		c9.5,0,14.9-8.1,14.6-15.4C35.9,19.1,36.8,18.2,37.5,17.2z"/>
	<g>
		<path fill="#D2D2D2" d="M25,1c13.2,0,24,10.8,24,24S38.2,49,25,49S1,38.2,1,25S11.8,1,25,1 M25,0C11.2,0,0,11.2,0,25
			s11.2,25,25,25s25-11.2,25-25S38.8,0,25,0L25,0z"/>
	</g>
</g>
</svg>
