<?xml version="1.0" encoding="utf-8"?>
<!-- Generator: Adobe Illustrator 18.1.1, SVG Export Plug-In . SVG Version: 6.00 Build 0)  -->
<svg version="1.1" xmlns="http://www.w3.org/2000/svg" xmlns:xlink="http://www.w3.org/1999/xlink" x="0px" y="0px"
	 viewBox="0 0 50 50" enable-background="new 0 0 50 50" xml:space="preserve">
<g id="Calque_1">
</g>
<g id="Calque_2">
</g>
<g id="Calque_3">
</g>
<g id="Calque_4">
</g>
<g id="Calque_5">
	<path id="linkedin-icon_2_" fill="#D2D2D2" d="M18.6,15.6c0,1.7-1.4,3.1-3.1,3.1s-3.1-1.4-3.1-3.1c0-1.7,1.4-3.1,3.1-3.1
		C17.2,12.5,18.6,13.9,18.6,15.6z M18.2,20.8H13v16.7h5.2V20.8z M26.4,20.8h-5v16.7h5c0,0,0-6.2,0-8.7c0-2.3,1.1-3.7,3.1-3.7
		c1.9,0,2.8,1.3,2.8,3.7c0,2.4,0,8.7,0,8.7h5.1c0,0,0-6.1,0-10.6s-2.5-6.6-6.1-6.6s-5,2.8-5,2.8L26.4,20.8L26.4,20.8z"/>
	<g>
		<path fill="#D2D2D2" d="M25,1c13.2,0,24,10.8,24,24S38.2,49,25,49S1,38.2,1,25S11.8,1,25,1 M25,0C11.2,0,0,11.2,0,25
			s11.2,25,25,25s25-11.2,25-25S38.8,0,25,0L25,0z"/>
	</g>
</g>
</svg>
