<?xml version="1.0" encoding="utf-8"?>
<!-- Generator: Adobe Illustrator 18.1.1, SVG Export Plug-In . SVG Version: 6.00 Build 0)  -->
<svg version="1.1" xmlns="http://www.w3.org/2000/svg" xmlns:xlink="http://www.w3.org/1999/xlink" x="0px" y="0px"
	 viewBox="0 0 50 50" enable-background="new 0 0 50 50" xml:space="preserve">
<g id="Calque_1">
</g>
<g id="Calque_2">
</g>
<g id="Calque_3">
</g>
<g id="Calque_4">
</g>
<g id="Calque_5">
	<path id="youtube-icon_2_" fill="#D2D2D2" d="M17.2,12.5h1.5l1,3.9l1-3.9h1.5l-1.8,5.7v3.9H19v-3.9L17.2,12.5z M22.2,20.4
		c0,1.3,0.7,1.9,2,1.9c1.1,0,1.9-0.7,1.9-1.9v-3.5c0-1.1-0.8-1.9-1.9-1.9c-1.2,0-2,0.8-2,1.9V20.4z M23.6,17c0-0.4,0.2-0.7,0.6-0.7
		c0.4,0,0.6,0.3,0.6,0.7v3.3c0,0.4-0.2,0.7-0.6,0.7c-0.4,0-0.6-0.3-0.6-0.7V17z M29.8,15v5.4C29.6,20.6,29.2,21,29,21
		c-0.3,0-0.4-0.2-0.4-0.5V15h-1.3V21c0,0.7,0.2,1.3,0.9,1.3c0.4,0,1-0.2,1.6-0.9v0.8h1.3V15H29.8z M27.8,29.6
		c0.1,0.1,0.1,0.3,0.1,0.5v3.5c0,0.2,0,0.4-0.1,0.5c-0.1,0.2-0.4,0.2-0.7,0.1c-0.1,0-0.2-0.1-0.3-0.2v-4.2c0.1-0.1,0.2-0.2,0.3-0.2
		C27.3,29.4,27.6,29.4,27.8,29.6z M32.1,29.5c-0.5,0-0.6,0.3-0.6,0.8v0.7h1.1v-0.7C32.7,29.8,32.6,29.5,32.1,29.5z M36,34.5
		c0,1.7-1.4,3-3.1,3H17.1c-1.7,0-3.1-1.4-3.1-3v-7.7c0-1.7,1.4-3,3.1-3h15.8c1.7,0,3.1,1.4,3.1,3L36,34.5L36,34.5z M19.2,27.4h1.5
		V26h-4.4v1.3h1.5v7.9h1.4V27.4L19.2,27.4z M24.3,28.5H23v5.1c-0.2,0.2-0.5,0.5-0.8,0.5c-0.3,0-0.3-0.2-0.3-0.5v-5.2h-1.3v5.7
		c0,1.4,0.9,1.4,1.6,1c0.3-0.1,0.5-0.4,0.7-0.6v0.7h1.3V28.5z M29.2,30.1c0-0.9-0.3-1.7-1.2-1.7c-0.5,0-0.8,0.3-1.1,0.6v-3h-1.3v9.2
		h1.3v-0.5c0.4,0.4,0.7,0.6,1.2,0.6c0.9,0,1.2-0.7,1.2-1.5V30.1z M34,30.3c0-1.2-0.6-2-1.8-2c-1.2,0-1.9,0.8-1.9,2v3
		c0,1.2,0.6,2.1,1.8,2.1c1.3,0,1.9-0.8,1.9-2.1v-0.5h-1.3v0.5c0,0.6,0,0.9-0.6,0.9c-0.5,0-0.6-0.4-0.6-0.9V32H34L34,30.3L34,30.3z"
		/>
	<g>
		<path fill="#D2D2D2" d="M25,1c13.2,0,24,10.8,24,24S38.2,49,25,49S1,38.2,1,25S11.8,1,25,1 M25,0C11.2,0,0,11.2,0,25
			s11.2,25,25,25s25-11.2,25-25S38.8,0,25,0L25,0z"/>
	</g>
</g>
</svg>
