<?xml version="1.0" encoding="utf-8"?>
<!-- Generator: Adobe Illustrator 18.1.1, SVG Export Plug-In . SVG Version: 6.00 Build 0)  -->
<svg version="1.1" xmlns="http://www.w3.org/2000/svg" xmlns:xlink="http://www.w3.org/1999/xlink" x="0px" y="0px"
	 viewBox="0 0 26 22" enable-background="new 0 0 26 22" xml:space="preserve">
<g id="Calque_1">
</g>
<g id="Calque_2">
	<path fill="#FFC300" d="M15.4,0.4C15.1,0.1,14.6,0,14.2,0c-0.5,0-0.9,0.3-1.2,0.6c-0.6,0.7-0.5,1.8,0.2,2.4l7.3,6.2H1.7
		C0.8,9.3,0,10,0,11s0.8,1.7,1.7,1.7h18.7L13.2,19c-0.7,0.6-0.8,1.7-0.2,2.4c0.3,0.3,0.7,0.6,1.2,0.6c0.5,0,0.9-0.1,1.3-0.4l9.4-8
		C25.6,12.9,26,12,26,11s-0.4-1.9-1.2-2.6L15.4,0.4z"/>
</g>
<g id="Calque_3">
</g>
<g id="Calque_4">
</g>
<g id="Calque_5">
</g>
</svg>
