<?xml version="1.0" encoding="utf-8"?>
<!-- Generator: Adobe Illustrator 18.1.1, SVG Export Plug-In . SVG Version: 6.00 Build 0)  -->
<svg version="1.1" xmlns="http://www.w3.org/2000/svg" xmlns:xlink="http://www.w3.org/1999/xlink" x="0px" y="0px"
	 viewBox="0 0 312 326" enable-background="new 0 0 312 326" xml:space="preserve">
<g id="Calque_1">
</g>
<g id="Calque_2">
</g>
<g id="Calque_3">
</g>
<g id="Calque_4">
	<path fill-rule="evenodd" clip-rule="evenodd" fill="#EEEEEE" d="M282,70.2h-1.3v113.7c0,19.3-15.7,35-35,35H132.4L90.9,254h87.9
		l85.2,72v-72H282c16.6,0,30-13.4,30-30V100.2C312,83.6,298.6,70.2,282,70.2z"/>
	<path fill-rule="evenodd" clip-rule="evenodd" fill="#EEEEEE" d="M30,14.2h196c16.6,0,30,13.4,30,30v123.9c0,16.6-13.4,30-30,30H30
		c-16.6,0-30-13.4-30-30V44.2C0,27.7,13.4,14.2,30,14.2z"/>
	<path fill-rule="evenodd" clip-rule="evenodd" fill="#EEEEEE" d="M47.9,174H152L47.9,262.1V174z"/>
</g>
<g id="Calque_5">
</g>
</svg>
