<?xml version="1.0" encoding="utf-8"?>
<!-- Generator: Adobe Illustrator 18.1.1, SVG Export Plug-In . SVG Version: 6.00 Build 0)  -->
<svg version="1.1" xmlns="http://www.w3.org/2000/svg" xmlns:xlink="http://www.w3.org/1999/xlink" x="0px" y="0px"
	 viewBox="0 0 50 50" enable-background="new 0 0 50 50" xml:space="preserve">
<g id="Calque_1">
</g>
<g id="Calque_2">
</g>
<g id="Calque_3">
</g>
<g id="Calque_4">
</g>
<g id="Calque_5">
	<path id="twitter-icon" fill="#B8B8B8" d="M50,9.4c-1.8,0.8-3.8,1.4-5.9,1.6c2.1-1.3,3.7-3.3,4.5-5.7c-2,1.2-4.2,2-6.5,2.5
		c-1.9-2-4.5-3.3-7.5-3.3c-6.6,0-11.5,6.2-10,12.7C16.1,16.8,8.5,12.7,3.5,6.4C0.8,11,2.1,17.1,6.7,20.2C5,20.2,3.4,19.7,2,18.9
		c-0.1,4.8,3.3,9.3,8.2,10.3c-1.4,0.4-3,0.5-4.6,0.2c1.3,4.1,5.1,7.1,9.6,7.2C10.9,40,5.4,41.5,0,40.8c4.5,2.9,9.9,4.7,15.7,4.7
		c19,0,29.8-16.2,29.2-30.8C46.9,13.3,48.6,11.4,50,9.4z"/>
</g>
</svg>
