<?xml version="1.0" encoding="utf-8"?>
<!-- Generator: Adobe Illustrator 18.1.1, SVG Export Plug-In . SVG Version: 6.00 Build 0)  -->
<svg version="1.1" xmlns="http://www.w3.org/2000/svg" xmlns:xlink="http://www.w3.org/1999/xlink" x="0px" y="0px"
	 viewBox="0 0 17 17" enable-background="new 0 0 17 17" xml:space="preserve">
<g id="Calque_1">
	<g>
		<g>
			<path fill="#01AFEF" d="M11,9.5l-2.5,3l-2.7-3c-2.5,1-4.3,3.3-4.3,6.1c0,0.3,0,0.6,0.1,0.9l13.9,0c0-0.3,0.1-0.6,0.1-0.9
				C15.5,12.8,13.7,10.5,11,9.5z M8.5,8.5c2.2,0,4-1.8,4-4c0-2.2-1.8-4-4-4c-2.2,0-4,1.8-4,4C4.5,6.7,6.3,8.5,8.5,8.5z"/>
		</g>
	</g>
</g>
<g id="Calque_2">
</g>
<g id="Calque_3">
</g>
<g id="Calque_4">
</g>
<g id="Calque_5">
</g>
</svg>
