<?xml version="1.0" encoding="utf-8"?>
<!-- Generator: Adobe Illustrator 18.1.1, SVG Export Plug-In . SVG Version: 6.00 Build 0)  -->
<svg version="1.1" xmlns="http://www.w3.org/2000/svg" xmlns:xlink="http://www.w3.org/1999/xlink" x="0px" y="0px"
	 viewBox="0 0 30 30" enable-background="new 0 0 30 30" xml:space="preserve">
<g id="Calque_3">
</g>
<g id="edit">
	<g id="Calque_2">
		<g id="Calque_5_-_copie">
		</g>
		<g id="Calque_5">
		</g>
		<g id="Calque_6">
		</g>
	</g>
</g>
<g id="Calque_4">
</g>
<g id="Calque_8">
	<g id="Calque_9">
		<defs>
			<path id="SVGID_1_" d="M-235,126c16,0,29,13,29,29s-13,29-29,29c-16,0-29-13-29-29S-251,126-235,126z"/>
		</defs>
		<clipPath id="SVGID_2_">
			<use xlink:href="#SVGID_1_"  overflow="visible"/>
		</clipPath>
	</g>
</g>
<g id="Calque_10_-_copie">
</g>
<g id="Calque_12">
	<g>
		<path fill-rule="evenodd" clip-rule="evenodd" fill="#DBDDDE" d="M15,0c8.3,0,15,6.7,15,15c0,8.3-6.7,15-15,15C6.7,30,0,23.3,0,15
			C0,6.7,6.7,0,15,0z"/>
	</g>
	<path fill="none" stroke="#FFFFFF" stroke-width="1.5" stroke-miterlimit="10" d="M15,5.7c-4.4,0-8,3.5-8,7.8c0,4.4,3.9,7.3,8,11.3
		c4.1-4,8-6.9,8-11.3C23,9.3,19.4,5.7,15,5.7z M15,17.2c-1.9,0-3.5-1.6-3.5-3.5s1.6-3.5,3.5-3.5c1.9,0,3.5,1.6,3.5,3.5
		S16.9,17.2,15,17.2z"/>
</g>
<g id="Calque_13">
</g>
<g id="Calque_10">
</g>
</svg>
