<?xml version="1.0" encoding="utf-8"?>
<!-- Generator: Adobe Illustrator 18.1.1, SVG Export Plug-In . SVG Version: 6.00 Build 0)  -->
<svg version="1.1" xmlns="http://www.w3.org/2000/svg" xmlns:xlink="http://www.w3.org/1999/xlink" x="0px" y="0px"
	 viewBox="0 0 17 21" enable-background="new 0 0 17 21" xml:space="preserve">
<g id="Calque_3">
</g>
<g id="edit">
	<g id="Calque_2">
		<g id="Calque_5_-_copie">
		</g>
		<g id="Calque_5">
		</g>
		<g id="Calque_6">
		</g>
	</g>
</g>
<g id="Calque_4">
</g>
<g id="Calque_8">
	<g id="Calque_9">
		<defs>
			<path id="SVGID_1_" d="M-130.5,126c16,0,29,13,29,29s-13,29-29,29c-16,0-29-13-29-29S-146.5,126-130.5,126z"/>
		</defs>
		<clipPath id="SVGID_2_">
			<use xlink:href="#SVGID_1_"  overflow="visible"/>
		</clipPath>
	</g>
</g>
<g id="Calque_10_-_copie">
	<path fill-rule="evenodd" clip-rule="evenodd" fill="#D2D6E7" d="M3.6,8.7v-1h8.8v1H3.6z"/>
	<path fill-rule="evenodd" clip-rule="evenodd" fill="#D2D6E7" d="M3.6,10.8v-1h8.8v1H3.6z"/>
	<path fill-rule="evenodd" clip-rule="evenodd" fill="#D2D6E7" d="M3.6,4.6v-1h5.2v1H3.6z"/>
	<path fill-rule="evenodd" clip-rule="evenodd" fill="#D2D6E7" d="M3.6,6.7v-1h5.2v1H3.6z"/>
	<path fill-rule="evenodd" clip-rule="evenodd" fill="#A6AFD0" d="M3.1,15.9h0.5v2.1H3.1V15.9z"/>
	<path fill-rule="evenodd" clip-rule="evenodd" fill="#A6AFD0" d="M4.1,12.8h0.5v5.1H4.1V12.8z"/>
	<path fill-rule="evenodd" clip-rule="evenodd" fill="#A6AFD0" d="M5.2,12.3h0.5v5.6H5.2V12.3z"/>
	<path fill-rule="evenodd" clip-rule="evenodd" fill="#A6AFD0" d="M6.2,13.8h0.5v4.1H6.2V13.8z"/>
	<path fill-rule="evenodd" clip-rule="evenodd" fill="#A6AFD0" d="M7.2,15.4h0.5v2.6H7.2V15.4z"/>
	<path fill-rule="evenodd" clip-rule="evenodd" fill="#A6AFD0" d="M8.2,16.4h0.5v1.5H8.2V16.4z"/>
	<path fill-rule="evenodd" clip-rule="evenodd" fill="#A6AFD0" d="M13.4,15.9h0.5v2.1h-0.5V15.9z"/>
	<path fill-rule="evenodd" clip-rule="evenodd" fill="#A6AFD0" d="M12.4,12.8h0.5v5.1h-0.5V12.8z"/>
	<path fill-rule="evenodd" clip-rule="evenodd" fill="#A6AFD0" d="M11.3,12.3h0.5v5.6h-0.5V12.3z"/>
	<path fill-rule="evenodd" clip-rule="evenodd" fill="#A6AFD0" d="M10.3,13.8h0.5v4.1h-0.5V13.8z"/>
	<path fill-rule="evenodd" clip-rule="evenodd" fill="#A6AFD0" d="M9.3,15.4h0.5v2.6H9.3V15.4z"/>
	<path fill-rule="evenodd" clip-rule="evenodd" fill="none" stroke="#DBDDDE" stroke-miterlimit="10" d="M16.5,6.2h-5.2V0.5"/>
	<g>
		<path fill="#DBDDDE" d="M11.4,1L16,6.2V20H1V1H11.4 M11.9,0H0v21h17V5.8L11.9,0L11.9,0z"/>
	</g>
</g>
<g id="Calque_12">
</g>
<g id="Calque_13">
</g>
<g id="Calque_10">
</g>
</svg>
