<?xml version="1.0" encoding="utf-8"?>
<!-- Generator: Adobe Illustrator 18.1.1, SVG Export Plug-In . SVG Version: 6.00 Build 0)  -->
<svg version="1.1" xmlns="http://www.w3.org/2000/svg" xmlns:xlink="http://www.w3.org/1999/xlink" x="0px" y="0px"
	 viewBox="0 0 33 41" enable-background="new 0 0 33 41" xml:space="preserve">
<g id="Calque_3">
</g>
<g id="edit">
	<g id="Calque_2">
		<g id="Calque_5_-_copie">
		</g>
		<g id="Calque_5">
		</g>
		<g id="Calque_6">
		</g>
	</g>
</g>
<g id="Calque_4">
</g>
<g id="Calque_8">
	<g id="Calque_9">
		<defs>
			<path id="SVGID_1_" d="M-77.5,117.5c16,0,29,13,29,29s-13,29-29,29c-16,0-29-13-29-29S-93.5,117.5-77.5,117.5z"/>
		</defs>
		<clipPath id="SVGID_2_">
			<use xlink:href="#SVGID_1_"  overflow="visible"/>
		</clipPath>
	</g>
</g>
<g id="Calque_10_-_copie">
</g>
<g id="Calque_12">
</g>
<g id="Calque_13">
</g>
<g id="Calque_10">
	<path fill-rule="evenodd" clip-rule="evenodd" fill="#D2D6E7" d="M7,17v-2h17v2H7z"/>
	<path fill-rule="evenodd" clip-rule="evenodd" fill="#D2D6E7" d="M7,21v-2h17v2H7z"/>
	<path fill-rule="evenodd" clip-rule="evenodd" fill="#D2D6E7" d="M7,9V7h10v2H7z"/>
	<path fill-rule="evenodd" clip-rule="evenodd" fill="#D2D6E7" d="M7,13v-2h10v2H7z"/>
	<path fill-rule="evenodd" clip-rule="evenodd" fill="#A6AFD0" d="M6,31h1v4H6V31z"/>
	<path fill-rule="evenodd" clip-rule="evenodd" fill="#A6AFD0" d="M8,25h1v10H8V25z"/>
	<path fill-rule="evenodd" clip-rule="evenodd" fill="#A6AFD0" d="M10,24h1v11h-1V24z"/>
	<path fill-rule="evenodd" clip-rule="evenodd" fill="#A6AFD0" d="M12,27h1v8h-1V27z"/>
	<path fill-rule="evenodd" clip-rule="evenodd" fill="#A6AFD0" d="M14,30h1v5h-1V30z"/>
	<path fill-rule="evenodd" clip-rule="evenodd" fill="#A6AFD0" d="M16,32h1v3h-1V32z"/>
	<path fill-rule="evenodd" clip-rule="evenodd" fill="#A6AFD0" d="M26,31h1v4h-1V31z"/>
	<path fill-rule="evenodd" clip-rule="evenodd" fill="#A6AFD0" d="M24,25h1v10h-1V25z"/>
	<path fill-rule="evenodd" clip-rule="evenodd" fill="#A6AFD0" d="M22,24h1v11h-1V24z"/>
	<path fill-rule="evenodd" clip-rule="evenodd" fill="#A6AFD0" d="M20,27h1v8h-1V27z"/>
	<path fill-rule="evenodd" clip-rule="evenodd" fill="#A6AFD0" d="M18,30h1v5h-1V30z"/>
	<path fill-rule="evenodd" clip-rule="evenodd" fill="none" stroke="#DBDDDE" stroke-width="2" stroke-miterlimit="10" d="M32,12H22
		V1"/>
	<g>
		<path fill="#DBDDDE" d="M22.1,2L31,12.1V39H2V2H22.1 M23,0H0v41h33V11.3L23,0L23,0z"/>
	</g>
</g>
</svg>
