<?xml version="1.0" encoding="utf-8"?>
<!-- Generator: Adobe Illustrator 18.1.1, SVG Export Plug-In . SVG Version: 6.00 Build 0)  -->
<svg version="1.1" xmlns="http://www.w3.org/2000/svg" xmlns:xlink="http://www.w3.org/1999/xlink" x="0px" y="0px"
	 viewBox="0 0 47 47" enable-background="new 0 0 47 47" xml:space="preserve">
<g id="Calque_3">
</g>
<g id="edit">
	<g id="Calque_2">
		<g id="Calque_5_-_copie">
		</g>
		<g id="Calque_5">
		</g>
		<g id="Calque_6">
		</g>
	</g>
</g>
<g id="Calque_4">
</g>
<g id="Calque_8">
	<g id="Calque_9">
		<defs>
			<path id="SVGID_1_" d="M-168,45c16,0,29,13,29,29s-13,29-29,29c-16,0-29-13-29-29S-184,45-168,45z"/>
		</defs>
		<clipPath id="SVGID_2_">
			<use xlink:href="#SVGID_1_"  overflow="visible"/>
		</clipPath>
	</g>
</g>
<g id="Calque_10_-_copie">
</g>
<g id="Calque_12">
	<g>
		<path fill-rule="evenodd" clip-rule="evenodd" fill="#DBDDDE" d="M23.5,0C36.5,0,47,10.5,47,23.5C47,36.5,36.5,47,23.5,47
			C10.5,47,0,36.5,0,23.5C0,10.5,10.5,0,23.5,0z"/>
	</g>
	
		<polygon fill="none" stroke="#FFFFFF" stroke-width="2" stroke-linecap="round" stroke-linejoin="round" stroke-miterlimit="10" points="
		36.3,15.5 11.3,17.4 18.3,25.7 21.3,36.2 	"/>
	
		<polygon fill="none" stroke="#FFFFFF" stroke-width="2" stroke-linecap="round" stroke-linejoin="round" stroke-miterlimit="10" points="
		36.3,15.5 21.3,36.2 18.3,25.7 	"/>
</g>
<g id="Calque_13">
</g>
<g id="Calque_10">
</g>
</svg>
