<?xml version="1.0" encoding="utf-8"?>
<!-- Generator: Adobe Illustrator 18.1.1, SVG Export Plug-In . SVG Version: 6.00 Build 0)  -->
<svg version="1.1" xmlns="http://www.w3.org/2000/svg" xmlns:xlink="http://www.w3.org/1999/xlink" x="0px" y="0px"
	 viewBox="0 0 47 47" enable-background="new 0 0 47 47" xml:space="preserve">
<g id="Calque_3">
</g>
<g id="edit">
	<g id="Calque_2">
		<g id="Calque_5_-_copie">
		</g>
		<g id="Calque_5">
		</g>
		<g id="Calque_6">
		</g>
	</g>
</g>
<g id="Calque_4">
</g>
<g id="Calque_8">
	<g id="Calque_9">
		<defs>
			<path id="SVGID_1_" d="M-168,125c16,0,29,13,29,29s-13,29-29,29c-16,0-29-13-29-29S-184,125-168,125z"/>
		</defs>
		<clipPath id="SVGID_2_">
			<use xlink:href="#SVGID_1_"  overflow="visible"/>
		</clipPath>
	</g>
</g>
<g id="Calque_10_-_copie">
</g>
<g id="Calque_12">
	<g>
		<path fill-rule="evenodd" clip-rule="evenodd" fill="#DBDDDE" d="M23.5,0C36.5,0,47,10.5,47,23.5C47,36.5,36.5,47,23.5,47
			C10.5,47,0,36.5,0,23.5C0,10.5,10.5,0,23.5,0z"/>
	</g>
	<g>
		<path fill="#FFFFFF" d="M23.5,11C29.3,11,34,15.6,34,21.3c0,5-4,8.8-9,13.5c-0.5,0.5-1,0.9-1.5,1.4c-0.5-0.5-1-1-1.5-1.4
			c-5-4.8-9-8.5-9-13.5C13,15.6,17.7,11,23.5,11 M23.5,29c4.1,0,7.5-3.4,7.5-7.5c0-4.1-3.4-7.5-7.5-7.5S16,17.4,16,21.5
			C16,25.6,19.4,29,23.5,29 M23.5,9C16.6,9,11,14.5,11,21.3c0,6.9,6.1,11.4,12.5,17.7C29.9,32.7,36,28.2,36,21.3
			C36,14.5,30.4,9,23.5,9L23.5,9z M23.5,27c-3,0-5.5-2.5-5.5-5.5c0-3,2.5-5.5,5.5-5.5c3,0,5.5,2.5,5.5,5.5C29,24.5,26.5,27,23.5,27
			L23.5,27z"/>
	</g>
</g>
<g id="Calque_13">
</g>
<g id="Calque_10">
</g>
</svg>
