<?xml version="1.0" encoding="utf-8"?>
<!-- Generator: Adobe Illustrator 18.1.1, SVG Export Plug-In . SVG Version: 6.00 Build 0)  -->
<svg version="1.1" xmlns="http://www.w3.org/2000/svg" xmlns:xlink="http://www.w3.org/1999/xlink" x="0px" y="0px"
	 viewBox="0 0 35 35" enable-background="new 0 0 35 35" xml:space="preserve">
<g id="header">
	<path fill="none" stroke="#858585" stroke-width="2" stroke-linecap="round" stroke-linejoin="round" stroke-miterlimit="10" d="
		M29,13.9c0,4.6-3.7,8.4-8.3,8.4c-4.6,0-8.3-3.7-8.3-8.4c0-4.6,3.7-8.4,8.3-8.4C25.3,5.5,29,9.2,29,13.9z"/>
	
		<polygon fill="none" stroke="#858585" stroke-width="2" stroke-linecap="round" stroke-linejoin="round" stroke-miterlimit="10" points="
		5,26.1 11.9,19.4 14.5,19.4 15.3,20.2 14.9,22.8 8.1,29.5 	"/>
	<polygon fill="#858585" points="11.9,19.4 14.9,22.8 15.3,20.2 14.5,19.4 	"/>
</g>
<g id="nav-mob">
	<g id="Calque_6_-_copie">
	</g>
	<g id="Calque_12_-_copie">
	</g>
	<g id="Calque_5_-_copie">
	</g>
	<g id="Calque_4_-_copie">
	</g>
	<g id="Calque_3_-_copie">
	</g>
	<g id="Calque_2_-_copie">
		<g id="Calque_7_-_copie">
			<defs>
				<path id="SVGID_1_" d="M-130.8,5v30h30V5H-130.8z M-105.5,21.4c0,1.8-1.4,3.2-3.1,3.2h-7.9l-5.6,4.9l-0.6-4.9
					c-1,0-1.8-0.8-1.8-1.8V12.4c0-1,0.8-1.8,1.8-1.8h15.4c1,0,1.8,0.8,1.8,1.8V21.4z"/>
			</defs>
			<clipPath id="SVGID_2_">
				<use xlink:href="#SVGID_1_"  overflow="visible"/>
			</clipPath>
		</g>
	</g>
	<g id="Calque_22">
	</g>
</g>
<g id="nav">
	<g id="Calque_6">
	</g>
	<g id="Calque_12">
	</g>
	<g id="Calque_5">
	</g>
	<g id="Calque_4">
	</g>
	<g id="Calque_3">
	</g>
	<g id="Calque_2">
		<g id="Calque_7">
			<defs>
				<path id="SVGID_3_" d="M-137.5,88.5v43h43v-43H-137.5z M-101.8,112.8c0,2.5-2,4.5-4.5,4.5h-11.4l-8.1,6.9l-0.9-6.9
					c-1.4,0-2.6-1.2-2.6-2.6v-14.6c0-1.4,1.2-2.6,2.6-2.6h22.4c1.4,0,2.6,1.2,2.6,2.6V112.8z"/>
			</defs>
			<clipPath id="SVGID_4_">
				<use xlink:href="#SVGID_3_"  overflow="visible"/>
			</clipPath>
		</g>
	</g>
</g>
<g id="btn">
</g>
<g id="table_x5F_circle">
</g>
<g id="status">
</g>
<g id="arrow">
</g>
<g id="recap">
	<g id="Calque_24">
	</g>
	<g id="Calque_25">
	</g>
	<g id="Calque_26">
	</g>
	<g id="Calque_27">
	</g>
</g>
</svg>
