<?xml version="1.0" encoding="utf-8"?>
<!-- Generator: Adobe Illustrator 18.1.1, SVG Export Plug-In . SVG Version: 6.00 Build 0)  -->
<svg version="1.1" xmlns="http://www.w3.org/2000/svg" xmlns:xlink="http://www.w3.org/1999/xlink" x="0px" y="0px"
	 viewBox="0 0 51 51" enable-background="new 0 0 51 51" xml:space="preserve">
<g id="Calque_3">
</g>
<g id="edit">
	<g id="Calque_2">
		<g id="Calque_5_-_copie">
		</g>
		<g id="Calque_5">
		</g>
		<g id="Calque_6">
		</g>
	</g>
</g>
<g id="Calque_4">
</g>
<g id="Calque_8">
	<g id="Calque_9">
		<defs>
			<path id="SVGID_1_" d="M-285,126c16,0,29,13,29,29s-13,29-29,29c-16,0-29-13-29-29S-301,126-285,126z"/>
		</defs>
		<clipPath id="SVGID_2_">
			<use xlink:href="#SVGID_1_"  overflow="visible"/>
		</clipPath>
	</g>
</g>
<g id="Calque_10_-_copie">
</g>
<g id="Calque_12">
</g>
<g id="Calque_13">
	<g>
		<path fill-rule="evenodd" clip-rule="evenodd" fill="#21BEF0" d="M25.5,0C39.6,0,51,11.4,51,25.5C51,39.6,39.6,51,25.5,51
			C11.4,51,0,39.6,0,25.5C0,11.4,11.4,0,25.5,0z"/>
	</g>
	<path fill="#FFFFFF" d="M26.8,34.7c0,0.7-0.6,1.3-1.3,1.3c-0.7,0-1.3-0.6-1.3-1.3s0.6-1.3,1.3-1.3C26.2,33.3,26.8,33.9,26.8,34.7z
		 M31.1,25.1c-0.8,1-1.5,1.6-2.1,2.1c-0.7,0.5-1.2,0.9-1.7,1.8c-0.1,0.2-0.2,0.5-0.3,0.7c-0.2,0.5-0.7,0.9-1.2,0.9h0
		c-0.4,0-0.8-0.2-1-0.5c-0.2-0.3-0.3-0.8-0.2-1.2c0.1-0.4,0.3-0.9,0.6-1.3c0.8-1.3,1.6-1.9,2.3-2.5c0.6-0.5,1.1-0.9,1.7-1.7
		c0.4-0.5,0.6-1.9,0-3.2c-0.5-1.1-1.6-1.7-3.1-1.7c-1.6,0-2.8,0.4-3.5,1.2c-1,1.1-0.9,2.6-0.9,2.7v0.1c0,0.4-0.1,0.7-0.4,0.9
		C21,23.9,20.7,24,20.3,24h0c-0.7,0-1.3-0.6-1.3-1.3v0c0,0-0.2-2.6,1.5-4.6c1.2-1.4,3.1-2.1,5.4-2.1c3.4,0,4.9,2,5.4,3.1
		C32.3,21,32.2,23.6,31.1,25.1z"/>
</g>
<g id="Calque_10">
</g>
</svg>
