<?xml version="1.0" encoding="utf-8"?>
<!-- Generator: Adobe Illustrator 18.1.1, SVG Export Plug-In . SVG Version: 6.00 Build 0)  -->
<svg version="1.1" xmlns="http://www.w3.org/2000/svg" xmlns:xlink="http://www.w3.org/1999/xlink" x="0px" y="0px"
	 viewBox="0 0 36 36" enable-background="new 0 0 36 36" xml:space="preserve">
<g id="Calque_3">
</g>
<g id="edit">
	<g id="Calque_2">
		<g id="Calque_5_-_copie">
		</g>
		<g id="Calque_5">
		</g>
		<g id="Calque_6">
		</g>
	</g>
</g>
<g id="Calque_4">
</g>
<g id="Calque_8">
	<g id="Calque_9">
		<defs>
			<path id="SVGID_1_" d="M-364,45c16,0,29,13,29,29s-13,29-29,29c-16,0-29-13-29-29S-380,45-364,45z"/>
		</defs>
		<clipPath id="SVGID_2_">
			<use xlink:href="#SVGID_1_"  overflow="visible"/>
		</clipPath>
	</g>
</g>
<g id="Calque_10_-_copie">
</g>
<g id="Calque_12">
</g>
<g id="Calque_13">
	<g>
		<path fill-rule="evenodd" clip-rule="evenodd" fill="#FFFFFF" d="M18,0c9.9,0,18,8.1,18,18c0,9.9-8.1,18-18,18C8.1,36,0,27.9,0,18
			C0,8.1,8.1,0,18,0z"/>
	</g>
	<path fill="#4D5FA1" d="M21.4,24H15v-0.7h6.4V24z M16.1,26.5c0,0.6,0.5,1.1,1.1,1.1h2.1c0.6,0,1.1-0.5,1.1-1.1
		c0.6,0,1.1-0.5,1.1-1.1H15C15,26,15.5,26.5,16.1,26.5z M11.1,19.6l1-0.5c0.3-0.1,0.4-0.5,0.2-0.7c-0.1-0.3-0.5-0.4-0.7-0.2l-1,0.5
		c-0.3,0.1-0.4,0.5-0.2,0.7C10.5,19.6,10.9,19.7,11.1,19.6z M9.9,15.3H11c0.3,0,0.6-0.2,0.6-0.5c0-0.3-0.2-0.5-0.6-0.5H9.9
		c-0.3,0-0.6,0.2-0.6,0.5C9.4,15.1,9.6,15.3,9.9,15.3z M10.9,11.2l0.9,0.6c0.3,0.2,0.6,0.1,0.8-0.2c0.2-0.3,0.1-0.6-0.2-0.8
		l-0.9-0.6c-0.3-0.2-0.6-0.1-0.8,0.2C10.6,10.7,10.7,11,10.9,11.2z M25.2,19.6c0.3,0.1,0.6,0,0.7-0.2c0.1-0.3,0-0.6-0.2-0.7l-1-0.5
		c-0.3-0.1-0.6,0-0.7,0.2c-0.1,0.3,0,0.6,0.2,0.7L25.2,19.6z M24.8,14.8c0,0.3,0.2,0.5,0.6,0.5h1.1c0.3,0,0.6-0.2,0.6-0.5
		c0-0.3-0.2-0.5-0.6-0.5h-1.1C25,14.2,24.8,14.5,24.8,14.8z M24.5,11.8l0.9-0.6c0.3-0.2,0.3-0.5,0.2-0.8c-0.2-0.3-0.5-0.3-0.8-0.2
		l-0.9,0.6c-0.3,0.2-0.3,0.5-0.2,0.8C23.9,11.8,24.2,11.9,24.5,11.8z M12.7,15.3c0-3,2.5-5.5,5.5-5.5c3,0,5.5,2.4,5.5,5.5
		c0,1.8-0.9,3.3-2.2,4.3v2.2h-6.6v-2.2C13.6,18.7,12.7,17.1,12.7,15.3z M13.8,15.3c0,1.4,0.6,2.6,1.8,3.5l0.4,0.3v1.7h4.4v-1.7
		l0.4-0.3c1.1-0.8,1.8-2.1,1.8-3.5c0-2.4-2-4.4-4.4-4.4S13.8,12.9,13.8,15.3z"/>
</g>
<g id="Calque_10">
</g>
</svg>
