<?xml version="1.0" encoding="utf-8"?>
<!-- Generator: Adobe Illustrator 18.1.1, SVG Export Plug-In . SVG Version: 6.00 Build 0)  -->
<svg version="1.1" xmlns="http://www.w3.org/2000/svg" xmlns:xlink="http://www.w3.org/1999/xlink" x="0px" y="0px"
	 viewBox="0 0 36 36" enable-background="new 0 0 36 36" xml:space="preserve">
<g id="Calque_3">
</g>
<g id="edit">
	<g id="Calque_2">
		<g id="Calque_5_-_copie">
		</g>
		<g id="Calque_5">
		</g>
		<g id="Calque_6">
		</g>
	</g>
</g>
<g id="Calque_4">
</g>
<g id="Calque_8">
	<g id="Calque_9">
		<defs>
			<path id="SVGID_1_" d="M-285,45c16,0,29,13,29,29s-13,29-29,29c-16,0-29-13-29-29S-301,45-285,45z"/>
		</defs>
		<clipPath id="SVGID_2_">
			<use xlink:href="#SVGID_1_"  overflow="visible"/>
		</clipPath>
	</g>
</g>
<g id="Calque_10_-_copie">
</g>
<g id="Calque_12">
</g>
<g id="Calque_13">
	<g>
		<path fill-rule="evenodd" clip-rule="evenodd" fill="#FFFFFF" d="M18,0c9.9,0,18,8.1,18,18c0,9.9-8.1,18-18,18C8.1,36,0,27.9,0,18
			C0,8.1,8.1,0,18,0z"/>
	</g>
	<path fill="#4D5FA1" d="M18.9,24.5c0,0.5-0.4,0.9-0.9,0.9s-0.9-0.4-0.9-0.9s0.4-0.9,0.9-0.9S18.9,24,18.9,24.5z M22,17.7
		c-0.5,0.7-1,1.1-1.5,1.5c-0.5,0.4-0.8,0.7-1.2,1.3c-0.1,0.2-0.2,0.3-0.2,0.5c-0.1,0.4-0.5,0.7-0.9,0.7h0c-0.3,0-0.6-0.1-0.7-0.4
		c-0.2-0.2-0.2-0.6-0.1-0.8c0.1-0.3,0.2-0.6,0.4-0.9c0.5-0.9,1.1-1.4,1.6-1.8c0.4-0.3,0.8-0.6,1.2-1.2c0.3-0.4,0.4-1.4,0-2.2
		c-0.4-0.8-1.1-1.2-2.2-1.2c-1.1,0-2,0.3-2.5,0.9c-0.7,0.8-0.6,1.9-0.6,1.9V16c0,0.2-0.1,0.5-0.3,0.7c-0.2,0.2-0.4,0.3-0.6,0.3h0
		c-0.5,0-0.9-0.4-0.9-0.9v0c0,0-0.2-1.8,1.1-3.2c0.9-1,2.2-1.5,3.8-1.5c2.4,0,3.4,1.4,3.8,2.2C22.8,14.9,22.7,16.7,22,17.7z"/>
</g>
<g id="Calque_10">
</g>
</svg>
