<?xml version="1.0" encoding="utf-8"?>
<!-- Generator: Adobe Illustrator 18.1.1, SVG Export Plug-In . SVG Version: 6.00 Build 0)  -->
<svg version="1.1" xmlns="http://www.w3.org/2000/svg" xmlns:xlink="http://www.w3.org/1999/xlink" x="0px" y="0px"
	 viewBox="0 0 36 36" enable-background="new 0 0 36 36" xml:space="preserve">
<g id="Calque_3">
</g>
<g id="edit">
	<g id="Calque_2">
		<g id="Calque_5_-_copie">
		</g>
		<g id="Calque_5">
		</g>
		<g id="Calque_6">
		</g>
	</g>
</g>
<g id="Calque_4">
</g>
<g id="Calque_8">
	<g id="Calque_9">
		<defs>
			<path id="SVGID_1_" d="M-435,126c16,0,29,13,29,29s-13,29-29,29c-16,0-29-13-29-29S-451,126-435,126z"/>
		</defs>
		<clipPath id="SVGID_2_">
			<use xlink:href="#SVGID_1_"  overflow="visible"/>
		</clipPath>
	</g>
</g>
<g id="Calque_10_-_copie">
</g>
<g id="Calque_12">
</g>
<g id="Calque_13">
	<g>
		<path fill-rule="evenodd" clip-rule="evenodd" fill="#FFFFFF" d="M18,0c9.9,0,18,8.1,18,18c0,9.9-8.1,18-18,18C8.1,36,0,27.9,0,18
			C0,8.1,8.1,0,18,0z"/>
	</g>
	<g>
		<path fill="#4D5FA1" d="M23.2,10.8l3,3l-0.5,0.5l-3-3L23.2,10.8 M23.2,8l-3.3,3.3l5.8,5.8l3.3-3.3L23.2,8L23.2,8z"/>
	</g>
	<path fill-rule="evenodd" clip-rule="evenodd" fill="#4D5FA1" d="M12.6,25.6l-1.1-1.1l8.9-8.9l1.1,1.1L12.6,25.6z"/>
	<path fill-rule="evenodd" clip-rule="evenodd" fill="#4D5FA1" d="M11.1,22.3l4.2,4.2h-4.2V22.3z"/>
	<g>
		<path fill="#4D5FA1" d="M19,15L22,18l-6.6,6.4l-3.6,0.9l1-3.6L19,15 M19,12.2l-8,8.5L9,28l7.4-1.9l8.4-8.1L19,12.2L19,12.2z"/>
	</g>
</g>
<g id="Calque_10">
</g>
</svg>
