<?xml version="1.0" encoding="utf-8"?>
<!-- Generator: Adobe Illustrator 18.1.1, SVG Export Plug-In . SVG Version: 6.00 Build 0)  -->
<svg version="1.1" xmlns="http://www.w3.org/2000/svg" xmlns:xlink="http://www.w3.org/1999/xlink" x="0px" y="0px"
	 viewBox="0 0 51 51" enable-background="new 0 0 51 51" xml:space="preserve">
<g id="Calque_3">
</g>
<g id="edit">
	<g id="Calque_2">
		<g id="Calque_5_-_copie">
		</g>
		<g id="Calque_5">
		</g>
		<g id="Calque_6">
		</g>
	</g>
</g>
<g id="Calque_4">
</g>
<g id="Calque_8">
	<g id="Calque_9">
		<defs>
			<path id="SVGID_1_" d="M-364,126c16,0,29,13,29,29s-13,29-29,29c-16,0-29-13-29-29S-380,126-364,126z"/>
		</defs>
		<clipPath id="SVGID_2_">
			<use xlink:href="#SVGID_1_"  overflow="visible"/>
		</clipPath>
	</g>
</g>
<g id="Calque_10_-_copie">
</g>
<g id="Calque_12">
</g>
<g id="Calque_13">
	<g>
		<path fill-rule="evenodd" clip-rule="evenodd" fill="#21BEF0" d="M25.5,0C39.6,0,51,11.4,51,25.5C51,39.6,39.6,51,25.5,51
			C11.4,51,0,39.6,0,25.5C0,11.4,11.4,0,25.5,0z"/>
	</g>
	<path fill="#FFFFFF" d="M30.3,34h-9v-1h9V34z M22.8,37.5c0,0.8,0.7,1.5,1.5,1.5h3c0.8,0,1.5-0.7,1.5-1.5c0.8,0,1.5-0.7,1.5-1.5h-9
		C21.3,36.8,21.9,37.5,22.8,37.5z M15.8,27.7l1.4-0.7c0.4-0.2,0.5-0.7,0.3-1c-0.2-0.4-0.7-0.5-1.1-0.3L15,26.3
		c-0.4,0.2-0.5,0.7-0.3,1C14.9,27.8,15.4,27.9,15.8,27.7z M14,21.7h1.6c0.4,0,0.8-0.3,0.8-0.8c0-0.4-0.4-0.8-0.8-0.8H14
		c-0.4,0-0.8,0.3-0.8,0.8C13.3,21.4,13.6,21.7,14,21.7z M15.5,15.9l1.3,0.8c0.4,0.2,0.8,0.1,1.1-0.3c0.2-0.4,0.1-0.8-0.3-1.1
		l-1.3-0.8c-0.4-0.2-0.8-0.1-1.1,0.3C15,15.2,15.1,15.6,15.5,15.9z M35.7,27.7c0.4,0.2,0.9,0.1,1.1-0.3c0.2-0.4,0.1-0.8-0.3-1
		l-1.4-0.7c-0.4-0.2-0.9-0.1-1.1,0.3c-0.2,0.4-0.1,0.8,0.3,1L35.7,27.7z M35.1,21c0,0.4,0.3,0.8,0.8,0.8h1.6c0.4,0,0.8-0.3,0.8-0.8
		c0-0.4-0.4-0.8-0.8-0.8h-1.6C35.5,20.2,35.1,20.5,35.1,21z M34.7,16.7l1.3-0.8c0.4-0.2,0.5-0.7,0.3-1.1c-0.2-0.4-0.7-0.5-1.1-0.3
		l-1.3,0.8c-0.4,0.2-0.5,0.7-0.3,1.1C33.8,16.8,34.3,16.9,34.7,16.7z M18,21.7c0-4.3,3.5-7.7,7.8-7.7c4.3,0,7.8,3.5,7.8,7.7
		c0,2.5-1.2,4.7-3.1,6.1V31h-9.4v-3.1C19.3,26.5,18,24.2,18,21.7z M19.6,21.7c0,1.9,0.9,3.7,2.5,4.9l0.6,0.5v2.3H29v-2.3l0.6-0.5
		c1.6-1.2,2.5-3,2.5-4.9c0-3.4-2.8-6.2-6.3-6.2S19.6,18.3,19.6,21.7z"/>
</g>
<g id="Calque_10">
</g>
</svg>
