<?xml version="1.0" encoding="utf-8"?>
<!-- Generator: Adobe Illustrator 18.1.1, SVG Export Plug-In . SVG Version: 6.00 Build 0)  -->
<svg version="1.1" xmlns="http://www.w3.org/2000/svg" xmlns:xlink="http://www.w3.org/1999/xlink" x="0px" y="0px"
	 viewBox="0 0 25 25" enable-background="new 0 0 25 25" xml:space="preserve">
<g id="header">
</g>
<g id="nav-mob">
	<g id="Calque_6_-_copie">
	</g>
	<g id="Calque_12_-_copie">
	</g>
	<g id="Calque_5_-_copie">
	</g>
	<g id="Calque_4_-_copie">
	</g>
	<g id="Calque_3_-_copie">
	</g>
	<g id="Calque_2_-_copie">
		<g>
			<g>
				
					<path fill="none" stroke="#FFFFFF" stroke-width="2" stroke-linecap="round" stroke-linejoin="round" stroke-miterlimit="10" d="
					M18.2,1H2.8C1.8,1,1,1.8,1,2.8v10.4c0,1,0.8,1.8,1.8,1.8h1.8v4.9l5.6-4.9h8.1c1,0,1.8-0.8,1.8-1.8V2.8C20,1.8,19.2,1,18.2,1z"/>
			</g>
		</g>
		<g id="Calque_7_-_copie">
			<defs>
				<path id="SVGID_1_" d="M-3.3-2.5v30h30v-30H-3.3z M22,13.9c0,1.8-1.4,3.2-3.1,3.2H11L5.4,22l-0.6-4.9c-1,0-1.8-0.8-1.8-1.8V4.9
					C3,3.9,3.8,3,4.8,3h15.4c1,0,1.8,0.8,1.8,1.8V13.9z"/>
			</defs>
			<clipPath id="SVGID_2_">
				<use xlink:href="#SVGID_1_"  overflow="visible"/>
			</clipPath>
			<path clip-path="url(#SVGID_2_)" fill-rule="evenodd" clip-rule="evenodd" fill="#FFFFFF" d="M7.8,5.5h15.4c1,0,1.8,0.8,1.8,1.8
				v10.4c0,1-0.8,1.8-1.8,1.8H7.8c-1,0-1.8-0.8-1.8-1.8V7.3C6,6.3,6.8,5.5,7.8,5.5z"/>
			<path clip-path="url(#SVGID_2_)" fill-rule="evenodd" clip-rule="evenodd" fill="#FFFFFF" d="M21.4,18.3h-7.7l7.7,6.7V18.3z"/>
		</g>
	</g>
	<g id="Calque_22">
	</g>
</g>
<g id="nav">
	<g id="Calque_6">
	</g>
	<g id="Calque_12">
	</g>
	<g id="Calque_5">
	</g>
	<g id="Calque_4">
	</g>
	<g id="Calque_3">
	</g>
	<g id="Calque_2">
		<g id="Calque_7">
			<defs>
				<path id="SVGID_3_" d="M-10,81v43h43V81H-10z M25.7,105.3c0,2.5-2,4.5-4.5,4.5H9.7l-8.1,6.9l-0.9-6.9c-1.4,0-2.6-1.2-2.6-2.6
					V92.6c0-1.4,1.2-2.6,2.6-2.6h22.4c1.4,0,2.6,1.2,2.6,2.6V105.3z"/>
			</defs>
			<clipPath id="SVGID_4_">
				<use xlink:href="#SVGID_3_"  overflow="visible"/>
			</clipPath>
		</g>
	</g>
</g>
<g id="btn">
</g>
<g id="table_x5F_circle">
</g>
<g id="status">
</g>
<g id="arrow">
</g>
<g id="recap">
	<g id="Calque_24">
	</g>
	<g id="Calque_25">
	</g>
	<g id="Calque_26">
	</g>
	<g id="Calque_27">
	</g>
</g>
</svg>
