<?xml version="1.0" encoding="utf-8"?>
<!-- Generator: Adobe Illustrator 18.1.1, SVG Export Plug-In . SVG Version: 6.00 Build 0)  -->
<svg version="1.1" xmlns="http://www.w3.org/2000/svg" xmlns:xlink="http://www.w3.org/1999/xlink" x="0px" y="0px"
	 viewBox="0 0 25 25" enable-background="new 0 0 25 25" xml:space="preserve">
<g id="header">
</g>
<g id="nav-mob">
	<g id="Calque_6_-_copie">
	</g>
	<g id="Calque_12_-_copie">
	</g>
	<g id="Calque_5_-_copie">
	</g>
	<g id="Calque_4_-_copie">
		
			<polyline fill="none" stroke="#FFFFFF" stroke-width="2" stroke-linecap="round" stroke-linejoin="round" stroke-miterlimit="10" points="
			4,4.5 4,2 21.6,2 21.6,23 4,23 4,20.3 		"/>
		<path fill="none" stroke="#FFFFFF" stroke-width="2" stroke-linecap="round" stroke-linejoin="round" stroke-miterlimit="10" d="
			M6.4,5.7C6.4,6.4,5.9,7,5.3,7H2.6C2,7,1.5,6.4,1.5,5.7l0,0c0-0.7,0.5-1.2,1.1-1.2h2.7C5.9,4.5,6.4,5.1,6.4,5.7L6.4,5.7z"/>
		<path fill="none" stroke="#FFFFFF" stroke-width="2" stroke-linecap="round" stroke-linejoin="round" stroke-miterlimit="10" d="
			M6.4,10.2c0,0.7-0.5,1.2-1.1,1.2H2.6c-0.6,0-1.1-0.5-1.1-1.2l0,0C1.5,9.6,2,9,2.6,9h2.7C5.9,9,6.4,9.6,6.4,10.2L6.4,10.2z"/>
		<path fill="none" stroke="#FFFFFF" stroke-width="2" stroke-linecap="round" stroke-linejoin="round" stroke-miterlimit="10" d="
			M6.4,14.7c0,0.7-0.5,1.2-1.1,1.2H2.6c-0.6,0-1.1-0.5-1.1-1.2l0,0c0-0.7,0.5-1.2,1.1-1.2h2.7C5.9,13.5,6.4,14,6.4,14.7L6.4,14.7z"
			/>
		<path fill="none" stroke="#FFFFFF" stroke-width="2" stroke-linecap="round" stroke-linejoin="round" stroke-miterlimit="10" d="
			M6.4,19c0,0.7-0.5,1.2-1.1,1.2H2.6c-0.6,0-1.1-0.5-1.1-1.2l0,0c0-0.7,0.5-1.2,1.1-1.2h2.7C5.9,17.8,6.4,18.4,6.4,19L6.4,19z"/>
		
			<line fill="none" stroke="#FFFFFF" stroke-width="2" stroke-linecap="round" stroke-linejoin="round" stroke-miterlimit="10" x1="4" y1="9" x2="4" y2="7"/>
		
			<line fill="none" stroke="#FFFFFF" stroke-width="2" stroke-linecap="round" stroke-linejoin="round" stroke-miterlimit="10" x1="4" y1="13.5" x2="4" y2="11.5"/>
		
			<line fill="none" stroke="#FFFFFF" stroke-width="2" stroke-linecap="round" stroke-linejoin="round" stroke-miterlimit="10" x1="4" y1="17.8" x2="4" y2="15.9"/>
	</g>
	<g id="Calque_3_-_copie">
	</g>
	<g id="Calque_2_-_copie">
		<g id="Calque_7_-_copie">
			<defs>
				<path id="SVGID_1_" d="M136.8-2.5v30h30v-30H136.8z M162,13.9c0,1.8-1.4,3.2-3.1,3.2H151l-5.6,4.9l-0.6-4.9
					c-1,0-1.8-0.8-1.8-1.8V4.9c0-1,0.8-1.8,1.8-1.8h15.4c1,0,1.8,0.8,1.8,1.8V13.9z"/>
			</defs>
			<clipPath id="SVGID_2_">
				<use xlink:href="#SVGID_1_"  overflow="visible"/>
			</clipPath>
		</g>
	</g>
	<g id="Calque_22">
	</g>
</g>
<g id="nav">
	<g id="Calque_6">
	</g>
	<g id="Calque_12">
	</g>
	<g id="Calque_5">
	</g>
	<g id="Calque_4">
	</g>
	<g id="Calque_3">
	</g>
	<g id="Calque_2">
		<g id="Calque_7">
			<defs>
				<path id="SVGID_3_" d="M130,81v43h43V81H130z M165.7,105.3c0,2.5-2,4.5-4.5,4.5h-11.4l-8.1,6.9l-0.9-6.9c-1.4,0-2.6-1.2-2.6-2.6
					V92.6c0-1.4,1.2-2.6,2.6-2.6h22.4c1.4,0,2.6,1.2,2.6,2.6V105.3z"/>
			</defs>
			<clipPath id="SVGID_4_">
				<use xlink:href="#SVGID_3_"  overflow="visible"/>
			</clipPath>
		</g>
	</g>
</g>
<g id="btn">
</g>
<g id="table_x5F_circle">
</g>
<g id="status">
</g>
<g id="arrow">
</g>
<g id="recap">
	<g id="Calque_24">
	</g>
	<g id="Calque_25">
	</g>
	<g id="Calque_26">
	</g>
	<g id="Calque_27">
	</g>
</g>
</svg>
