<?xml version="1.0" encoding="utf-8"?>
<!-- Generator: Adobe Illustrator 18.1.1, SVG Export Plug-In . SVG Version: 6.00 Build 0)  -->
<svg version="1.1" xmlns="http://www.w3.org/2000/svg" xmlns:xlink="http://www.w3.org/1999/xlink" x="0px" y="0px"
	 viewBox="0 0 70 70" enable-background="new 0 0 70 70" xml:space="preserve">
<g id="Calque_3">
</g>
<g id="edit">
	<g id="Calque_2">
		<g id="Calque_5_-_copie">
		</g>
		<g id="Calque_5">
		</g>
		<g id="Calque_6">
			<g>
				<path fill="#FFFFFF" d="M40,25.8l4.2,4.2L43,31.2L38.8,27L40,25.8 M40,23l-4,4l7,7l4-4L40,23L40,23z"/>
			</g>
			<path fill-rule="evenodd" clip-rule="evenodd" fill="#FFFFFF" d="M27.3,44.1L26,42.8l10.7-10.7l1.3,1.3L27.3,44.1z"/>
			<path fill-rule="evenodd" clip-rule="evenodd" fill="#FFFFFF" d="M25.5,40.1l5,5h-5V40.1z"/>
			<g>
				<path fill="#FFFFFF" d="M35,30.9l4.1,4.1l-8.3,8l-5.1,1.3l1.4-5L35,30.9 M35,28l-9.6,10.2L23,47l8.9-2.2L42,35L35,28L35,28z"/>
			</g>
		</g>
	</g>
</g>
<g id="Calque_4">
</g>
<g id="Calque_8">
	<g id="Calque_9">
		<defs>
			<path id="SVGID_1_" d="M135,126c16,0,29,13,29,29s-13,29-29,29c-16,0-29-13-29-29S119,126,135,126z"/>
		</defs>
		<clipPath id="SVGID_2_">
			<use xlink:href="#SVGID_1_"  overflow="visible"/>
		</clipPath>
	</g>
</g>
<g id="Calque_10_-_copie">
</g>
<g id="Calque_12">
</g>
<g id="Calque_13">
</g>
<g id="Calque_10">
</g>
</svg>
