<?xml version="1.0" encoding="utf-8"?>
<!-- Generator: Adobe Illustrator 18.1.1, SVG Export Plug-In . SVG Version: 6.00 Build 0)  -->
<svg version="1.1" xmlns="http://www.w3.org/2000/svg" xmlns:xlink="http://www.w3.org/1999/xlink" x="0px" y="0px"
	 viewBox="0 0 30 30" enable-background="new 0 0 30 30" xml:space="preserve">
<g id="Calque_3">
	<g>
		<g>
			<path fill="#DADCDD" d="M15,11c-1.7,0-3.1,1.4-3.1,3.1s1.4,3.1,3.1,3.1c1.7,0,3.1-1.4,3.1-3.1S16.7,11,15,11z M15,0
				C6.7,0,0,6.7,0,15s6.7,15,15,15c8.3,0,15-6.7,15-15S23.3,0,15,0z M15,24c-3.6-3.6-7-6.1-7-10c0-3.8,3.1-7,7-7c3.9,0,7,3.1,7,7
				C22,17.9,18.6,20.4,15,24z"/>
		</g>
	</g>
</g>
<g id="edit">
	<g id="Calque_2">
		<g id="Calque_5_-_copie">
		</g>
		<g id="Calque_5">
		</g>
		<g id="Calque_6">
		</g>
	</g>
</g>
<g id="Calque_4">
</g>
<g id="Calque_8">
	<g id="Calque_9">
		<defs>
			<path id="SVGID_1_" d="M275,126c16,0,29,13,29,29s-13,29-29,29c-16,0-29-13-29-29S259,126,275,126z"/>
		</defs>
		<clipPath id="SVGID_2_">
			<use xlink:href="#SVGID_1_"  overflow="visible"/>
		</clipPath>
	</g>
</g>
<g id="Calque_10_-_copie">
</g>
<g id="Calque_12">
</g>
<g id="Calque_13">
</g>
<g id="Calque_10">
</g>
</svg>
