<?xml version="1.0" encoding="utf-8"?>
<!-- Generator: Adobe Illustrator 18.1.1, SVG Export Plug-In . SVG Version: 6.00 Build 0)  -->
<svg version="1.1" xmlns="http://www.w3.org/2000/svg" xmlns:xlink="http://www.w3.org/1999/xlink" x="0px" y="0px"
	 viewBox="0 0 58 58" enable-background="new 0 0 58 58" xml:space="preserve">
<g id="Calque_3">
</g>
<g id="edit">
	<g id="Calque_2">
		<g id="Calque_5_-_copie">
		</g>
		<g id="Calque_5">
		</g>
		<g id="Calque_6">
		</g>
	</g>
</g>
<g id="Calque_4">
</g>
<g id="Calque_8">
	<g>
		<path fill-rule="evenodd" clip-rule="evenodd" fill="#DBDDDE" d="M29,0c16,0,29,13,29,29S45,58,29,58C13,58,0,45,0,29S13,0,29,0z"
			/>
	</g>
	<g id="Calque_9">
		<defs>
			<path id="SVGID_1_" d="M29,0c16,0,29,13,29,29S45,58,29,58C13,58,0,45,0,29S13,0,29,0z"/>
		</defs>
		<clipPath id="SVGID_2_">
			<use xlink:href="#SVGID_1_"  overflow="visible"/>
		</clipPath>
		<path clip-path="url(#SVGID_2_)" fill="none" stroke="#FFFFFF" stroke-width="3" stroke-miterlimit="10" d="M36.3,36.3
			c7.5,2.6,12.8,9,12.8,16.6c0,0.8-0.1,5.6-0.2,6.4c0,0-9.2,4.8-19.1,4.8c-10,0-20.7-4.8-20.7-4.8c-0.1-0.8-0.2-5.6-0.2-6.5
			c0-7.4,5.2-13.8,12.5-16.5l7.6,8.1L36.3,36.3z"/>
		<path clip-path="url(#SVGID_2_)" fill="none" stroke="#FFFFFF" stroke-width="3" stroke-miterlimit="10" d="M39,22.7
			c0,5.6-4.5,10-10,10c-5.6,0-10.1-4.5-10.1-10c0-5.6,4.5-10,10.1-10C34.5,12.7,39,17.2,39,22.7z"/>
	</g>
</g>
<g id="Calque_10_-_copie">
</g>
<g id="Calque_12">
</g>
<g id="Calque_13">
</g>
<g id="Calque_10">
</g>
</svg>
