<?xml version="1.0" encoding="utf-8"?>
<!-- Generator: Adobe Illustrator 18.1.1, SVG Export Plug-In . SVG Version: 6.00 Build 0)  -->
<svg version="1.1" xmlns="http://www.w3.org/2000/svg" xmlns:xlink="http://www.w3.org/1999/xlink" x="0px" y="0px"
	 viewBox="0 0 90 90" enable-background="new 0 0 90 90" xml:space="preserve">
<g id="Calque_3">
</g>
<g id="edit">
	<g id="Calque_2">
		<g id="Calque_5_-_copie">
		</g>
		<g id="Calque_5">
		</g>
		<g id="Calque_6">
		</g>
	</g>
</g>
<g id="Calque_4">
	<path fill="none" stroke="#DBDDDE" stroke-width="4" stroke-miterlimit="10" d="M54.1,49.7C63.4,52.9,70,60.9,70,70.3
		c0,1-0.1,7-0.2,8c0,0-11.5,6-23.8,6c-12.5,0-25.8-6-25.8-6c-0.2-1-0.2-7-0.2-8c0-9.3,6.4-17.2,15.5-20.5L45,59.9L54.1,49.7z"/>
	<path fill="none" stroke="#DBDDDE" stroke-width="4" stroke-miterlimit="10" d="M57.5,34c0,6.9-5.6,12.5-12.5,12.5
		c-6.9,0-12.5-5.6-12.5-12.5c0-6.9,5.6-12.5,12.5-12.5C51.9,21.5,57.5,27.1,57.5,34z"/>
	<g>
		<path fill="#DBDDDE" d="M45,10c19.3,0,35,15.7,35,35S64.3,80,45,80c-19.3,0-35-15.7-35-35S25.7,10,45,10 M45,0C20.2,0,0,20.2,0,45
			s20.2,45,45,45s45-20.2,45-45S69.8,0,45,0L45,0z"/>
	</g>
</g>
<g id="Calque_8">
	<g id="Calque_9">
		<defs>
			<path id="SVGID_1_" d="M45,126c16,0,29,13,29,29s-13,29-29,29c-16,0-29-13-29-29S29,126,45,126z"/>
		</defs>
		<clipPath id="SVGID_2_">
			<use xlink:href="#SVGID_1_"  overflow="visible"/>
		</clipPath>
	</g>
</g>
<g id="Calque_10_-_copie">
</g>
<g id="Calque_12">
</g>
<g id="Calque_13">
</g>
<g id="Calque_10">
</g>
</svg>
