<?xml version="1.0" encoding="utf-8"?>
<!-- Generator: Adobe Illustrator 18.1.1, SVG Export Plug-In . SVG Version: 6.00 Build 0)  -->
<svg version="1.1" xmlns="http://www.w3.org/2000/svg" xmlns:xlink="http://www.w3.org/1999/xlink" x="0px" y="0px"
	 viewBox="0 0 30 30" enable-background="new 0 0 30 30" xml:space="preserve">
<g id="Calque_3">
	<g>
		<g>
			<path fill="#DADCDD" d="M16,15h2v-1h-2V15z M15,12h-5v3h5V12z M11,22h8v-5h-8V22z M12,18h6v1h-6V18z M12,20h4v1h-4V20z M19,8h-8
				v2h8V8z M18,12h-2v1h2V12z M19,15h1v-1h-1V15z M19,13h1v-1h-1V13z M15,0C6.7,0,0,6.7,0,15s6.7,15,15,15c8.3,0,15-6.7,15-15
				S23.3,0,15,0z M23,20h-3v3H10v-3H7V10h3V7h10v3h3V20z"/>
		</g>
	</g>
</g>
<g id="edit">
	<g id="Calque_2">
		<g id="Calque_5_-_copie">
		</g>
		<g id="Calque_5">
		</g>
		<g id="Calque_6">
		</g>
	</g>
</g>
<g id="Calque_4">
</g>
<g id="Calque_8">
	<g id="Calque_9">
		<defs>
			<path id="SVGID_1_" d="M325,126c16,0,29,13,29,29s-13,29-29,29c-16,0-29-13-29-29S309,126,325,126z"/>
		</defs>
		<clipPath id="SVGID_2_">
			<use xlink:href="#SVGID_1_"  overflow="visible"/>
		</clipPath>
	</g>
</g>
<g id="Calque_10_-_copie">
</g>
<g id="Calque_12">
</g>
<g id="Calque_13">
</g>
<g id="Calque_10">
</g>
</svg>
