<?xml version="1.0" encoding="utf-8"?>
<!-- Generator: Adobe Illustrator 18.1.1, SVG Export Plug-In . SVG Version: 6.00 Build 0)  -->
<svg version="1.1" xmlns="http://www.w3.org/2000/svg" xmlns:xlink="http://www.w3.org/1999/xlink" x="0px" y="0px"
	 viewBox="0 0 50 50" enable-background="new 0 0 50 50" xml:space="preserve">
<g id="Calque_3">
</g>
<g id="edit">
	<g>
		<path fill="#2FBCEE" d="M25,3c12.1,0,22,9.9,22,22c0,12.1-9.9,22-22,22C12.9,47,3,37.1,3,25C3,12.9,12.9,3,25,3 M25,1
			C11.7,1,1,11.7,1,25c0,13.3,10.7,24,24,24c13.3,0,24-10.7,24-24C49,11.7,38.3,1,25,1L25,1z"/>
	</g>
	<g display="none">
		<path display="inline" fill="#2EBDEE" d="M25,12.2c5.9,0,10.8,4.7,10.8,10.5c0,5.1-4.1,9-9.2,13.8c-0.5,0.5-1,1-1.6,1.5
			c-0.5-0.5-1-1-1.6-1.5c-5.1-4.9-9.2-8.7-9.2-13.8C14.2,16.9,19.1,12.2,25,12.2 M25,30.6c4.2,0,7.6-3.4,7.6-7.6
			c0-4.2-3.4-7.6-7.6-7.6c-4.2,0-7.6,3.4-7.6,7.6C17.4,27.1,20.8,30.6,25,30.6 M25,10.2c-7.1,0-12.8,5.6-12.8,12.5
			c0,7,6.2,11.7,12.8,18.1c6.6-6.4,12.8-11.1,12.8-18.1C37.8,15.8,32.1,10.2,25,10.2L25,10.2z M25,28.6c-3.1,0-5.6-2.5-5.6-5.6
			c0-3.1,2.5-5.6,5.6-5.6c3.1,0,5.6,2.5,5.6,5.6C30.6,26.1,28.1,28.6,25,28.6L25,28.6z"/>
	</g>
	<g id="Calque_2">
		<g>
			<path fill="#2FBCEE" d="M30,15.8l4.2,4.2L33,21.2L28.8,17L30,15.8 M30,13l-4,4l7,7l4-4L30,13L30,13z"/>
		</g>
		<path fill-rule="evenodd" clip-rule="evenodd" fill="#2FBCEE" d="M17.3,34.1L16,32.8l10.7-10.7l1.3,1.3L17.3,34.1z"/>
		<path fill-rule="evenodd" clip-rule="evenodd" fill="#2FBCEE" d="M15.5,30.1l5,5h-5V30.1z"/>
		<g>
			<path fill="#2FBCEE" d="M25,20.9l4.1,4.1l-8.3,8l-5.1,1.3l1.4-5L25,20.9 M25,18l-9.6,10.2L13,37l8.9-2.2L32,25L25,18L25,18z"/>
		</g>
		<g id="Calque_5_-_copie">
		</g>
		<g id="Calque_5">
		</g>
		<g id="Calque_6">
		</g>
	</g>
</g>
<g id="Calque_4">
</g>
<g id="Calque_8">
	<g id="Calque_9">
		<defs>
			<path id="SVGID_1_" d="M555,126c16,0,29,13,29,29s-13,29-29,29c-16,0-29-13-29-29S539,126,555,126z"/>
		</defs>
		<clipPath id="SVGID_2_">
			<use xlink:href="#SVGID_1_"  overflow="visible"/>
		</clipPath>
	</g>
</g>
<g id="Calque_10_-_copie">
</g>
<g id="Calque_12">
</g>
<g id="Calque_13">
</g>
<g id="Calque_10">
</g>
</svg>
