<?xml version="1.0" encoding="utf-8"?>
<!-- Generator: Adobe Illustrator 18.1.1, SVG Export Plug-In . SVG Version: 6.00 Build 0)  -->
<svg version="1.1" xmlns="http://www.w3.org/2000/svg" xmlns:xlink="http://www.w3.org/1999/xlink" x="0px" y="0px"
	 viewBox="0 0 30 30" enable-background="new 0 0 30 30" xml:space="preserve">
<g id="Calque_3">
	<g>
		<g>
			<path fill="#DADCDD" d="M15,0C6.7,0,0,6.7,0,15s6.7,15,15,15c8.3,0,15-6.7,15-15S23.3,0,15,0z M20.3,23.5
				c-1.2,0.6-4.2,2.2-8.8-6.8C6.8,7.8,9.9,6.4,11.1,5.8c0,0,1.7-0.8,1.7-0.8l2.8,5.3l-1.7,0.8c-1.7,0.9,1.9,7.9,3.7,7
				c0.1,0,1.6-0.8,1.6-0.8l2.8,5.3C22,22.7,20.4,23.5,20.3,23.5z"/>
		</g>
	</g>
</g>
<g id="edit">
	<g id="Calque_2">
		<g id="Calque_5_-_copie">
		</g>
		<g id="Calque_5">
		</g>
		<g id="Calque_6">
		</g>
	</g>
</g>
<g id="Calque_4">
</g>
<g id="Calque_8">
	<g id="Calque_9">
		<defs>
			<path id="SVGID_1_" d="M475,126c16,0,29,13,29,29s-13,29-29,29c-16,0-29-13-29-29S459,126,475,126z"/>
		</defs>
		<clipPath id="SVGID_2_">
			<use xlink:href="#SVGID_1_"  overflow="visible"/>
		</clipPath>
	</g>
</g>
<g id="Calque_10_-_copie">
</g>
<g id="Calque_12">
</g>
<g id="Calque_13">
</g>
<g id="Calque_10">
</g>
</svg>
