<?xml version="1.0" encoding="utf-8"?>
<!-- Generator: Adobe Illustrator 18.1.1, SVG Export Plug-In . SVG Version: 6.00 Build 0)  -->
<svg version="1.1" xmlns="http://www.w3.org/2000/svg" xmlns:xlink="http://www.w3.org/1999/xlink" x="0px" y="0px"
	 viewBox="0 0 58 58" enable-background="new 0 0 58 58" xml:space="preserve">
<g id="Calque_3">
</g>
<g id="edit">
	<g id="Calque_2">
		<g id="Calque_5_-_copie">
		</g>
		<g id="Calque_5">
			<g>
				<path fill="#FFFFFF" d="M34,19.8l4.2,4.2L37,25.2L32.8,21L34,19.8 M34,17l-4,4l7,7l4-4L34,17L34,17z"/>
			</g>
			<path fill-rule="evenodd" clip-rule="evenodd" fill="#FFFFFF" d="M21.3,38.1L20,36.8l10.7-10.7l1.3,1.3L21.3,38.1z"/>
			<path fill-rule="evenodd" clip-rule="evenodd" fill="#FFFFFF" d="M19.5,34.1l5,5h-5V34.1z"/>
			<g>
				<path fill="#FFFFFF" d="M29,24.9l4.1,4.1l-8.3,8l-5.1,1.3l1.4-5L29,24.9 M29,22l-9.6,10.2L17,41l8.9-2.2L36,29L29,22L29,22z"/>
			</g>
		</g>
		<g id="Calque_6">
		</g>
	</g>
</g>
<g id="Calque_4">
</g>
<g id="Calque_8">
	<g id="Calque_9">
		<defs>
			<path id="SVGID_1_" d="M129,30c16,0,29,13,29,29s-13,29-29,29c-16,0-29-13-29-29S113,30,129,30z"/>
		</defs>
		<clipPath id="SVGID_2_">
			<use xlink:href="#SVGID_1_"  overflow="visible"/>
		</clipPath>
	</g>
</g>
<g id="Calque_10_-_copie">
</g>
<g id="Calque_12">
</g>
<g id="Calque_13">
</g>
<g id="Calque_10">
</g>
</svg>
