<?xml version="1.0" encoding="utf-8"?>
<!-- Generator: Adobe Illustrator 18.1.1, SVG Export Plug-In . SVG Version: 6.00 Build 0)  -->
<svg version="1.1" xmlns="http://www.w3.org/2000/svg" xmlns:xlink="http://www.w3.org/1999/xlink" x="0px" y="0px"
	 viewBox="0 0 40 40" enable-background="new 0 0 40 40" xml:space="preserve">
<g id="header">
</g>
<g id="nav-mob">
	<g id="Calque_6_-_copie">
	</g>
	<g id="Calque_12_-_copie">
	</g>
	<g id="Calque_5_-_copie">
	</g>
	<g id="Calque_4_-_copie">
	</g>
	<g id="Calque_3_-_copie">
	</g>
	<g id="Calque_2_-_copie">
		<g id="Calque_7_-_copie">
			<defs>
				<path id="SVGID_1_" d="M-577-41v32h32v-32H-577z M-550.4-22.9c0,1.9-1.5,3.4-3.4,3.4h-8.5l-6.1,5.1l-0.6-5.1
					c-1.1,0-1.9-0.9-1.9-1.9v-10.9c0-1.1,0.9-1.9,1.9-1.9h16.6c1.1,0,1.9,0.9,1.9,1.9V-22.9z"/>
			</defs>
			<clipPath id="SVGID_2_">
				<use xlink:href="#SVGID_1_"  overflow="visible"/>
			</clipPath>
		</g>
	</g>
	<g id="Calque_22">
	</g>
</g>
<g id="nav">
	<g id="Calque_6">
	</g>
	<g id="Calque_12">
	</g>
	<g id="Calque_5">
	</g>
	<g id="Calque_4">
	</g>
	<g id="Calque_3">
	</g>
	<g id="Calque_2">
		<g id="Calque_7">
			<defs>
				<path id="SVGID_3_" d="M-583.5,43.5v43h43v-43H-583.5z M-547.8,67.8c0,2.5-2,4.5-4.5,4.5h-11.4l-8.1,6.9l-0.9-6.9
					c-1.4,0-2.6-1.2-2.6-2.6V55.1c0-1.4,1.2-2.6,2.6-2.6h22.4c1.4,0,2.6,1.2,2.6,2.6V67.8z"/>
			</defs>
			<clipPath id="SVGID_4_">
				<use xlink:href="#SVGID_3_"  overflow="visible"/>
			</clipPath>
		</g>
	</g>
</g>
<g id="btn">
</g>
<g id="table_x5F_circle">
</g>
<g id="status">
</g>
<g id="arrow">
</g>
<g id="recap">
	<g id="Calque_24">
	</g>
	<g id="Calque_25">
	</g>
	<g id="Calque_26">
		<g>
			<path fill="#2EBDEF" d="M20,2c9.9,0,18,8.1,18,18c0,9.9-8.1,18-18,18c-9.9,0-18-8.1-18-18C2,10.1,10.1,2,20,2 M20,0C9,0,0,9,0,20
				c0,11,9,20,20,20c11,0,20-9,20-20C40,9,31,0,20,0L20,0z"/>
		</g>
		<path fill="none" stroke="#2ABDEF" stroke-width="2" stroke-miterlimit="10" d="M23.6,19.9c3.7,1.3,6.4,4.5,6.4,8.3
			c0,0.4,0,0.8-0.1,1.2l-19.8,0C10,29,10,28.6,10,28.2c0-3.7,2.6-6.9,6.2-8.3L20,24L23.6,19.9z"/>
		<path fill="none" stroke="#2ABDEF" stroke-width="2" stroke-miterlimit="10" d="M24.9,13.5c0,3-2.2,5.4-5,5.4c-2.8,0-5-2.4-5-5.4
			c0-3,2.2-5.4,5-5.4C22.7,8.1,24.9,10.5,24.9,13.5z"/>
	</g>
	<g id="Calque_27">
	</g>
</g>
</svg>
