<?xml version="1.0" encoding="utf-8"?>
<!-- Generator: Adobe Illustrator 18.1.1, SVG Export Plug-In . SVG Version: 6.00 Build 0)  -->
<svg version="1.1" xmlns="http://www.w3.org/2000/svg" xmlns:xlink="http://www.w3.org/1999/xlink" x="0px" y="0px"
	 viewBox="0 0 40 40" enable-background="new 0 0 40 40" xml:space="preserve">
<g id="header">
</g>
<g id="nav-mob">
	<g id="Calque_6_-_copie">
	</g>
	<g id="Calque_12_-_copie">
	</g>
	<g id="Calque_5_-_copie">
	</g>
	<g id="Calque_4_-_copie">
	</g>
	<g id="Calque_3_-_copie">
	</g>
	<g id="Calque_2_-_copie">
		<g id="Calque_7_-_copie">
			<defs>
				<path id="SVGID_1_" d="M-647-41v32h32v-32H-647z M-620.4-22.9c0,1.9-1.5,3.4-3.4,3.4h-8.5l-6.1,5.1l-0.6-5.1
					c-1.1,0-1.9-0.9-1.9-1.9v-10.9c0-1.1,0.9-1.9,1.9-1.9h16.6c1.1,0,1.9,0.9,1.9,1.9V-22.9z"/>
			</defs>
			<clipPath id="SVGID_2_">
				<use xlink:href="#SVGID_1_"  overflow="visible"/>
			</clipPath>
		</g>
	</g>
	<g id="Calque_22">
	</g>
</g>
<g id="nav">
	<g id="Calque_6">
	</g>
	<g id="Calque_12">
	</g>
	<g id="Calque_5">
	</g>
	<g id="Calque_4">
	</g>
	<g id="Calque_3">
	</g>
	<g id="Calque_2">
		<g id="Calque_7">
			<defs>
				<path id="SVGID_3_" d="M-653.5,43.5v43h43v-43H-653.5z M-617.8,67.8c0,2.5-2,4.5-4.5,4.5h-11.4l-8.1,6.9l-0.9-6.9
					c-1.4,0-2.6-1.2-2.6-2.6V55.1c0-1.4,1.2-2.6,2.6-2.6h22.4c1.4,0,2.6,1.2,2.6,2.6V67.8z"/>
			</defs>
			<clipPath id="SVGID_4_">
				<use xlink:href="#SVGID_3_"  overflow="visible"/>
			</clipPath>
		</g>
	</g>
</g>
<g id="btn">
</g>
<g id="table_x5F_circle">
</g>
<g id="status">
</g>
<g id="arrow">
</g>
<g id="recap">
	<g id="Calque_24">
	</g>
	<g id="Calque_25">
	</g>
	<g id="Calque_26">
	</g>
	<g id="Calque_27">
		<g>
			<g>
				<path fill-rule="evenodd" clip-rule="evenodd" fill="#FFFFFF" d="M20,0c11,0,20,9,20,20c0,11-9,20-20,20C9,40,0,31,0,20
					C0,9,9,0,20,0z"/>
			</g>
		</g>
		<path fill="#4D5FA1" d="M21.1,27.6c0,0.6-0.5,1.1-1.1,1.1s-1.1-0.5-1.1-1.1c0-0.6,0.5-1.1,1.1-1.1S21.1,27,21.1,27.6z M24.7,19.7
			c-0.6,0.9-1.2,1.4-1.8,1.8c-0.5,0.4-1,0.8-1.4,1.5c-0.1,0.2-0.2,0.4-0.3,0.6c-0.1,0.5-0.6,0.8-1,0.8h0c-0.3,0-0.7-0.2-0.9-0.5
			c-0.2-0.3-0.3-0.7-0.2-1c0.1-0.3,0.3-0.7,0.5-1.1c0.6-1.1,1.3-1.6,1.9-2.1c0.5-0.4,0.9-0.7,1.4-1.4c0.3-0.4,0.5-1.6,0-2.6
			c-0.4-0.9-1.3-1.4-2.6-1.4c-1.3,0-2.3,0.3-2.9,1c-0.8,0.9-0.7,2.2-0.7,2.2v0.1c0,0.3-0.1,0.6-0.3,0.8c-0.2,0.2-0.5,0.3-0.8,0.3h0
			c-0.6,0-1.1-0.5-1.1-1.1v0c0,0-0.2-2.2,1.3-3.8c1-1.2,2.5-1.7,4.5-1.7c2.8,0,4,1.6,4.5,2.6C25.7,16.3,25.6,18.4,24.7,19.7z"/>
	</g>
</g>
</svg>
