<?xml version="1.0" encoding="utf-8"?>
<!-- Generator: Adobe Illustrator 18.1.1, SVG Export Plug-In . SVG Version: 6.00 Build 0)  -->
<svg version="1.1" xmlns="http://www.w3.org/2000/svg" xmlns:xlink="http://www.w3.org/1999/xlink" x="0px" y="0px"
	 viewBox="0 0 50 50" enable-background="new 0 0 50 50" xml:space="preserve">
<g id="header">
</g>
<g id="nav-mob">
	<g id="Calque_6_-_copie">
	</g>
	<g id="Calque_12_-_copie">
	</g>
	<g id="Calque_5_-_copie">
	</g>
	<g id="Calque_4_-_copie">
	</g>
	<g id="Calque_3_-_copie">
	</g>
	<g id="Calque_2_-_copie">
		<g id="Calque_7_-_copie">
			<defs>
				<path id="SVGID_1_" d="M-432-125.5v32h32v-32H-432z M-405.4-107.4c0,1.9-1.5,3.4-3.4,3.4h-8.5l-6.1,5.1l-0.6-5.1
					c-1.1,0-1.9-0.9-1.9-1.9v-10.9c0-1.1,0.9-1.9,1.9-1.9h16.6c1.1,0,1.9,0.9,1.9,1.9V-107.4z"/>
			</defs>
			<clipPath id="SVGID_2_">
				<use xlink:href="#SVGID_1_"  overflow="visible"/>
			</clipPath>
		</g>
	</g>
	<g id="Calque_22">
	</g>
</g>
<g id="nav">
	<g id="Calque_6">
	</g>
	<g id="Calque_12">
	</g>
	<g id="Calque_5">
	</g>
	<g id="Calque_4">
	</g>
	<g id="Calque_3">
	</g>
	<g id="Calque_2">
		<g id="Calque_7">
			<defs>
				<path id="SVGID_3_" d="M-438.5-41V2h43v-43H-438.5z M-402.8-16.7c0,2.5-2,4.5-4.5,4.5h-11.4l-8.1,6.9l-0.9-6.9
					c-1.4,0-2.6-1.2-2.6-2.6v-14.6c0-1.4,1.2-2.6,2.6-2.6h22.4c1.4,0,2.6,1.2,2.6,2.6V-16.7z"/>
			</defs>
			<clipPath id="SVGID_4_">
				<use xlink:href="#SVGID_3_"  overflow="visible"/>
			</clipPath>
		</g>
	</g>
</g>
<g id="btn">
</g>
<g id="table_x5F_circle">
</g>
<g id="status">
</g>
<g id="arrow">
</g>
<g id="recap">
	<g id="Calque_24">
		<g>
			<path fill="#2EBDEF" d="M25,3c12.1,0,22,9.9,22,22c0,12.1-9.9,22-22,22C12.9,47,3,37.1,3,25C3,12.9,12.9,3,25,3 M25,1
				C11.7,1,1,11.7,1,25c0,13.3,10.7,24,24,24c13.3,0,24-10.7,24-24C49,11.7,38.3,1,25,1L25,1z"/>
		</g>
		<g>
			<path fill="#2ABDEF" d="M25,12.2c5.9,0,10.8,4.7,10.8,10.5c0,5.1-4.1,9-9.2,13.8c-0.5,0.5-1,1-1.6,1.5c-0.5-0.5-1-1-1.6-1.5
				c-5.1-4.9-9.2-8.7-9.2-13.8C14.2,16.9,19.1,12.2,25,12.2 M25,30.6c4.2,0,7.6-3.4,7.6-7.6c0-4.2-3.4-7.6-7.6-7.6
				c-4.2,0-7.6,3.4-7.6,7.6C17.4,27.1,20.8,30.6,25,30.6 M25,10.2c-7.1,0-12.8,5.6-12.8,12.5c0,7,6.2,11.7,12.8,18.1
				c6.6-6.4,12.8-11.1,12.8-18.1C37.8,15.8,32.1,10.2,25,10.2L25,10.2z M25,28.6c-3.1,0-5.6-2.5-5.6-5.6c0-3.1,2.5-5.6,5.6-5.6
				c3.1,0,5.6,2.5,5.6,5.6C30.6,26.1,28.1,28.6,25,28.6L25,28.6z"/>
		</g>
	</g>
	<g id="Calque_25">
	</g>
	<g id="Calque_26">
	</g>
	<g id="Calque_27">
	</g>
</g>
</svg>
