<?xml version="1.0" encoding="utf-8"?>
<!-- Generator: Adobe Illustrator 18.1.1, SVG Export Plug-In . SVG Version: 6.00 Build 0)  -->
<svg version="1.1" xmlns="http://www.w3.org/2000/svg" xmlns:xlink="http://www.w3.org/1999/xlink" x="0px" y="0px"
	 viewBox="0 0 40 40" enable-background="new 0 0 40 40" xml:space="preserve">
<g id="header">
</g>
<g id="nav-mob">
	<g id="Calque_6_-_copie">
	</g>
	<g id="Calque_12_-_copie">
	</g>
	<g id="Calque_5_-_copie">
	</g>
	<g id="Calque_4_-_copie">
	</g>
	<g id="Calque_3_-_copie">
	</g>
	<g id="Calque_2_-_copie">
		<g id="Calque_7_-_copie">
			<defs>
				<path id="SVGID_1_" d="M-507-41v32h32v-32H-507z M-480.4-22.9c0,1.9-1.5,3.4-3.4,3.4h-8.5l-6.1,5.1l-0.6-5.1
					c-1.1,0-1.9-0.9-1.9-1.9v-10.9c0-1.1,0.9-1.9,1.9-1.9h16.6c1.1,0,1.9,0.9,1.9,1.9V-22.9z"/>
			</defs>
			<clipPath id="SVGID_2_">
				<use xlink:href="#SVGID_1_"  overflow="visible"/>
			</clipPath>
		</g>
	</g>
	<g id="Calque_22">
	</g>
</g>
<g id="nav">
	<g id="Calque_6">
	</g>
	<g id="Calque_12">
	</g>
	<g id="Calque_5">
	</g>
	<g id="Calque_4">
	</g>
	<g id="Calque_3">
	</g>
	<g id="Calque_2">
		<g id="Calque_7">
			<defs>
				<path id="SVGID_3_" d="M-513.5,43.5v43h43v-43H-513.5z M-477.8,67.8c0,2.5-2,4.5-4.5,4.5h-11.4l-8.1,6.9l-0.9-6.9
					c-1.4,0-2.6-1.2-2.6-2.6V55.1c0-1.4,1.2-2.6,2.6-2.6h22.4c1.4,0,2.6,1.2,2.6,2.6V67.8z"/>
			</defs>
			<clipPath id="SVGID_4_">
				<use xlink:href="#SVGID_3_"  overflow="visible"/>
			</clipPath>
		</g>
	</g>
</g>
<g id="btn">
</g>
<g id="table_x5F_circle">
</g>
<g id="status">
</g>
<g id="arrow">
</g>
<g id="recap">
	<g id="Calque_24">
	</g>
	<g id="Calque_25">
		<g>
			<path fill="#2EBDEF" d="M20,2c9.9,0,18,8.1,18,18c0,9.9-8.1,18-18,18c-9.9,0-18-8.1-18-18C2,10.1,10.1,2,20,2 M20,0C9,0,0,9,0,20
				c0,11,9,20,20,20c11,0,20-9,20-20C40,9,31,0,20,0L20,0z"/>
		</g>
		<polyline fill="none" stroke="#2ABDEF" stroke-width="2" stroke-miterlimit="10" points="12,12.4 12,10 28.8,10 28.8,30 12,30 
			12,27.4 		"/>
		<path fill="none" stroke="#2ABDEF" stroke-width="2" stroke-miterlimit="10" d="M14.3,13.6c0,0.6-0.5,1.2-1.1,1.2h-2.5
			c-0.6,0-1.1-0.5-1.1-1.2l0,0c0-0.6,0.5-1.2,1.1-1.2h2.5C13.8,12.4,14.3,12.9,14.3,13.6L14.3,13.6z"/>
		<path fill="none" stroke="#2ABDEF" stroke-width="2" stroke-miterlimit="10" d="M14.3,17.9c0,0.6-0.5,1.2-1.1,1.2h-2.5
			c-0.6,0-1.1-0.5-1.1-1.2l0,0c0-0.6,0.5-1.2,1.1-1.2h2.5C13.8,16.7,14.3,17.2,14.3,17.9L14.3,17.9z"/>
		<path fill="none" stroke="#2ABDEF" stroke-width="2" stroke-miterlimit="10" d="M14.3,22.1c0,0.6-0.5,1.2-1.1,1.2h-2.5
			c-0.6,0-1.1-0.5-1.1-1.2l0,0c0-0.6,0.5-1.2,1.1-1.2h2.5C13.8,20.9,14.3,21.5,14.3,22.1L14.3,22.1z"/>
		<path fill="none" stroke="#2ABDEF" stroke-width="2" stroke-miterlimit="10" d="M14.3,26.2c0,0.6-0.5,1.2-1.1,1.2h-2.5
			c-0.6,0-1.1-0.5-1.1-1.2l0,0c0-0.6,0.5-1.2,1.1-1.2h2.5C13.8,25.1,14.3,25.6,14.3,26.2L14.3,26.2z"/>
		<line fill="none" stroke="#2ABDEF" stroke-width="2" stroke-miterlimit="10" x1="12" y1="16.7" x2="12" y2="14.7"/>
		<line fill="none" stroke="#2ABDEF" stroke-width="2" stroke-miterlimit="10" x1="12" y1="20.9" x2="12" y2="19"/>
		<line fill="none" stroke="#2ABDEF" stroke-width="2" stroke-miterlimit="10" x1="12" y1="25.1" x2="12" y2="23.3"/>
	</g>
	<g id="Calque_26">
	</g>
	<g id="Calque_27">
	</g>
</g>
</svg>
