<?xml version="1.0" encoding="utf-8"?>
<!-- Generator: Adobe Illustrator 18.1.1, SVG Export Plug-In . SVG Version: 6.00 Build 0)  -->
<svg version="1.1" xmlns="http://www.w3.org/2000/svg" xmlns:xlink="http://www.w3.org/1999/xlink" x="0px" y="0px"
	 viewBox="0 0 40 40" enable-background="new 0 0 40 40" xml:space="preserve">
<g id="header">
</g>
<g id="nav-mob">
	<g id="Calque_6_-_copie">
	</g>
	<g id="Calque_12_-_copie">
	</g>
	<g id="Calque_5_-_copie">
	</g>
	<g id="Calque_4_-_copie">
	</g>
	<g id="Calque_3_-_copie">
	</g>
	<g id="Calque_2_-_copie">
		<g id="Calque_7_-_copie">
			<defs>
				<path id="SVGID_1_" d="M-436.8-40v30h30v-30H-436.8z M-411.5-23.6c0,1.8-1.4,3.2-3.1,3.2h-7.9l-5.6,4.9l-0.6-4.9
					c-1,0-1.8-0.8-1.8-1.8v-10.4c0-1,0.8-1.8,1.8-1.8h15.4c1,0,1.8,0.8,1.8,1.8V-23.6z"/>
			</defs>
			<clipPath id="SVGID_2_">
				<use xlink:href="#SVGID_1_"  overflow="visible"/>
			</clipPath>
		</g>
	</g>
	<g id="Calque_22">
	</g>
</g>
<g id="nav">
	<g id="Calque_6">
	</g>
	<g id="Calque_12">
	</g>
	<g id="Calque_5">
	</g>
	<g id="Calque_4">
	</g>
	<g id="Calque_3">
	</g>
	<g id="Calque_2">
		<g id="Calque_7">
			<defs>
				<path id="SVGID_3_" d="M-443.5,43.5v43h43v-43H-443.5z M-407.8,67.8c0,2.5-2,4.5-4.5,4.5h-11.4l-8.1,6.9l-0.9-6.9
					c-1.4,0-2.6-1.2-2.6-2.6V55.1c0-1.4,1.2-2.6,2.6-2.6h22.4c1.4,0,2.6,1.2,2.6,2.6V67.8z"/>
			</defs>
			<clipPath id="SVGID_4_">
				<use xlink:href="#SVGID_3_"  overflow="visible"/>
			</clipPath>
		</g>
	</g>
</g>
<g id="btn">
</g>
<g id="table_x5F_circle">
</g>
<g id="status">
</g>
<g id="arrow">
</g>
<g id="recap">
	<g id="Calque_24">
		<g>
			<path fill="#2EBDEF" d="M20,2c9.9,0,18,8.1,18,18c0,9.9-8.1,18-18,18c-9.9,0-18-8.1-18-18C2,10.1,10.1,2,20,2 M20,0C9,0,0,9,0,20
				c0,11,9,20,20,20c11,0,20-9,20-20C40,9,31,0,20,0L20,0z"/>
		</g>
		<g>
			<path fill="#2ABDEF" d="M20,9.7c4.8,0,8.6,3.8,8.6,8.4c0,4.1-3.3,7.3-7.6,11.3c-0.4,0.3-0.7,0.7-1.1,1c-0.4-0.3-0.7-0.7-1.1-1
				c-4.2-4-7.6-7.2-7.6-11.3C11.4,13.4,15.2,9.7,20,9.7 M20,25c3.7,0,6.7-3,6.7-6.7c0-3.7-3-6.7-6.7-6.7s-6.7,3-6.7,6.7
				C13.3,22,16.3,25,20,25 M20,7.7c-5.9,0-10.6,4.7-10.6,10.4c0,5.9,5.2,9.7,10.6,15.1c5.5-5.4,10.6-9.2,10.6-15.1
				C30.6,12.3,25.9,7.7,20,7.7L20,7.7z M20,23c-2.6,0-4.7-2.1-4.7-4.7s2.1-4.7,4.7-4.7c2.6,0,4.7,2.1,4.7,4.7S22.6,23,20,23L20,23z"
				/>
		</g>
	</g>
	<g id="Calque_25">
	</g>
	<g id="Calque_26">
	</g>
	<g id="Calque_27">
	</g>
</g>
</svg>
