<?xml version="1.0" encoding="utf-8"?>
<!-- Generator: Adobe Illustrator 18.1.1, SVG Export Plug-In . SVG Version: 6.00 Build 0)  -->
<svg version="1.1" xmlns="http://www.w3.org/2000/svg" xmlns:xlink="http://www.w3.org/1999/xlink" x="0px" y="0px"
	 viewBox="0 0 50 50" enable-background="new 0 0 50 50" xml:space="preserve">
<g id="header">
</g>
<g id="nav-mob">
	<g id="Calque_6_-_copie">
	</g>
	<g id="Calque_12_-_copie">
	</g>
	<g id="Calque_5_-_copie">
	</g>
	<g id="Calque_4_-_copie">
	</g>
	<g id="Calque_3_-_copie">
	</g>
	<g id="Calque_2_-_copie">
		<g id="Calque_7_-_copie">
			<defs>
				<path id="SVGID_1_" d="M-711.8-124.5v30h30v-30H-711.8z M-686.5-108.1c0,1.8-1.4,3.2-3.1,3.2h-7.9l-5.6,4.9l-0.6-4.9
					c-1,0-1.8-0.8-1.8-1.8v-10.4c0-1,0.8-1.8,1.8-1.8h15.4c1,0,1.8,0.8,1.8,1.8V-108.1z"/>
			</defs>
			<clipPath id="SVGID_2_">
				<use xlink:href="#SVGID_1_"  overflow="visible"/>
			</clipPath>
		</g>
	</g>
	<g id="Calque_22">
	</g>
</g>
<g id="nav">
	<g id="Calque_6">
	</g>
	<g id="Calque_12">
	</g>
	<g id="Calque_5">
	</g>
	<g id="Calque_4">
	</g>
	<g id="Calque_3">
	</g>
	<g id="Calque_2">
		<g id="Calque_7">
			<defs>
				<path id="SVGID_3_" d="M-718.5-41V2h43v-43H-718.5z M-682.8-16.7c0,2.5-2,4.5-4.5,4.5h-11.4l-8.1,6.9l-0.9-6.9
					c-1.4,0-2.6-1.2-2.6-2.6v-14.6c0-1.4,1.2-2.6,2.6-2.6h22.4c1.4,0,2.6,1.2,2.6,2.6V-16.7z"/>
			</defs>
			<clipPath id="SVGID_4_">
				<use xlink:href="#SVGID_3_"  overflow="visible"/>
			</clipPath>
		</g>
	</g>
</g>
<g id="btn">
</g>
<g id="table_x5F_circle">
</g>
<g id="status">
</g>
<g id="arrow">
</g>
<g id="recap">
	<g id="Calque_24">
	</g>
	<g id="Calque_25">
	</g>
	<g id="Calque_26">
	</g>
	<g id="Calque_27">
		<path fill="#4D5FA1" d="M26.3,34.2c0,0.7-0.6,1.3-1.3,1.3c-0.7,0-1.3-0.6-1.3-1.3s0.6-1.3,1.3-1.3C25.7,32.8,26.3,33.4,26.3,34.2z
			 M30.6,24.6c-0.8,1-1.5,1.6-2.1,2.1c-0.7,0.5-1.2,0.9-1.7,1.8c-0.1,0.2-0.2,0.5-0.3,0.7c-0.2,0.5-0.7,0.9-1.2,0.9h0
			c-0.4,0-0.8-0.2-1-0.5c-0.2-0.3-0.3-0.8-0.2-1.2c0.1-0.4,0.3-0.9,0.6-1.3c0.8-1.3,1.6-1.9,2.3-2.5c0.6-0.5,1.1-0.9,1.7-1.7
			c0.4-0.5,0.6-1.9,0-3.2c-0.5-1.1-1.6-1.7-3.1-1.7c-1.6,0-2.8,0.4-3.5,1.2c-1,1.1-0.9,2.6-0.9,2.7v0.1c0,0.4-0.1,0.7-0.4,0.9
			c-0.2,0.2-0.6,0.4-0.9,0.4h0c-0.7,0-1.3-0.6-1.3-1.3v0c0,0-0.2-2.6,1.5-4.6c1.2-1.4,3.1-2.1,5.4-2.1c3.4,0,4.9,2,5.4,3.1
			C31.8,20.5,31.7,23.1,30.6,24.6z"/>
		<g>
			<path fill="#4D5FA1" d="M25,3c12.1,0,22,9.9,22,22c0,12.1-9.9,22-22,22C12.9,47,3,37.1,3,25C3,12.9,12.9,3,25,3 M25,1
				C11.7,1,1,11.7,1,25c0,13.3,10.7,24,24,24c13.3,0,24-10.7,24-24C49,11.7,38.3,1,25,1L25,1z"/>
		</g>
	</g>
</g>
</svg>
