<?xml version="1.0" encoding="utf-8"?>
<!-- Generator: Adobe Illustrator 18.1.1, SVG Export Plug-In . SVG Version: 6.00 Build 0)  -->
<svg version="1.1" xmlns="http://www.w3.org/2000/svg" xmlns:xlink="http://www.w3.org/1999/xlink" x="0px" y="0px"
	 viewBox="0 0 50 50" enable-background="new 0 0 50 50" xml:space="preserve">
<g id="header">
</g>
<g id="nav-mob">
	<g id="Calque_6_-_copie">
	</g>
	<g id="Calque_12_-_copie">
	</g>
	<g id="Calque_5_-_copie">
	</g>
	<g id="Calque_4_-_copie">
	</g>
	<g id="Calque_3_-_copie">
	</g>
	<g id="Calque_2_-_copie">
		<g id="Calque_7_-_copie">
			<defs>
				<path id="SVGID_1_" d="M-501.8-124.5v30h30v-30H-501.8z M-476.5-108.1c0,1.8-1.4,3.2-3.1,3.2h-7.9l-5.6,4.9l-0.6-4.9
					c-1,0-1.8-0.8-1.8-1.8v-10.4c0-1,0.8-1.8,1.8-1.8h15.4c1,0,1.8,0.8,1.8,1.8V-108.1z"/>
			</defs>
			<clipPath id="SVGID_2_">
				<use xlink:href="#SVGID_1_"  overflow="visible"/>
			</clipPath>
		</g>
	</g>
	<g id="Calque_22">
	</g>
</g>
<g id="nav">
	<g id="Calque_6">
	</g>
	<g id="Calque_12">
	</g>
	<g id="Calque_5">
	</g>
	<g id="Calque_4">
	</g>
	<g id="Calque_3">
	</g>
	<g id="Calque_2">
		<g id="Calque_7">
			<defs>
				<path id="SVGID_3_" d="M-508.5-41V2h43v-43H-508.5z M-472.8-16.7c0,2.5-2,4.5-4.5,4.5h-11.4l-8.1,6.9l-0.9-6.9
					c-1.4,0-2.6-1.2-2.6-2.6v-14.6c0-1.4,1.2-2.6,2.6-2.6h22.4c1.4,0,2.6,1.2,2.6,2.6V-16.7z"/>
			</defs>
			<clipPath id="SVGID_4_">
				<use xlink:href="#SVGID_3_"  overflow="visible"/>
			</clipPath>
		</g>
	</g>
</g>
<g id="btn">
</g>
<g id="table_x5F_circle">
</g>
<g id="status">
</g>
<g id="arrow">
</g>
<g id="recap">
	<g id="Calque_24">
	</g>
	<g id="Calque_25">
		<g>
			<path fill="#2EBDEF" d="M25,3c12.1,0,22,9.9,22,22c0,12.1-9.9,22-22,22C12.9,47,3,37.1,3,25C3,12.9,12.9,3,25,3 M25,1
				C11.7,1,1,11.7,1,25c0,13.3,10.7,24,24,24c13.3,0,24-10.7,24-24C49,11.7,38.3,1,25,1L25,1z"/>
		</g>
		<polyline fill="none" stroke="#2ABDEF" stroke-width="2" stroke-miterlimit="10" points="15.4,15.9 15.4,13 35.5,13 35.5,37 
			15.4,37 15.4,33.9 		"/>
		<path fill="none" stroke="#2ABDEF" stroke-width="2" stroke-miterlimit="10" d="M18.2,17.3c0,0.8-0.6,1.4-1.3,1.4h-3
			c-0.7,0-1.3-0.6-1.3-1.4l0,0c0-0.8,0.6-1.4,1.3-1.4h3C17.6,15.9,18.2,16.5,18.2,17.3L18.2,17.3z"/>
		<path fill="none" stroke="#2ABDEF" stroke-width="2" stroke-miterlimit="10" d="M18.2,22.4c0,0.8-0.6,1.4-1.3,1.4h-3
			c-0.7,0-1.3-0.6-1.3-1.4l0,0c0-0.8,0.6-1.4,1.3-1.4h3C17.6,21,18.2,21.7,18.2,22.4L18.2,22.4z"/>
		<path fill="none" stroke="#2ABDEF" stroke-width="2" stroke-miterlimit="10" d="M18.2,27.5c0,0.8-0.6,1.4-1.3,1.4h-3
			c-0.7,0-1.3-0.6-1.3-1.4l0,0c0-0.8,0.6-1.4,1.3-1.4h3C17.6,26.1,18.2,26.7,18.2,27.5L18.2,27.5z"/>
		<path fill="none" stroke="#2ABDEF" stroke-width="2" stroke-miterlimit="10" d="M18.2,32.5c0,0.8-0.6,1.4-1.3,1.4h-3
			c-0.7,0-1.3-0.6-1.3-1.4l0,0c0-0.8,0.6-1.4,1.3-1.4h3C17.6,31.1,18.2,31.7,18.2,32.5L18.2,32.5z"/>
		<line fill="none" stroke="#2ABDEF" stroke-width="2" stroke-miterlimit="10" x1="15.4" y1="21" x2="15.4" y2="18.7"/>
		<line fill="none" stroke="#2ABDEF" stroke-width="2" stroke-miterlimit="10" x1="15.4" y1="26.1" x2="15.4" y2="23.8"/>
		<line fill="none" stroke="#2ABDEF" stroke-width="2" stroke-miterlimit="10" x1="15.4" y1="31.1" x2="15.4" y2="28.9"/>
	</g>
	<g id="Calque_26">
	</g>
	<g id="Calque_27">
	</g>
</g>
</svg>
