<?xml version="1.0" encoding="utf-8"?>
<!-- Generator: Adobe Illustrator 18.1.1, SVG Export Plug-In . SVG Version: 6.00 Build 0)  -->
<svg version="1.1" xmlns="http://www.w3.org/2000/svg" xmlns:xlink="http://www.w3.org/1999/xlink" x="0px" y="0px"
	 viewBox="0 0 70 70" enable-background="new 0 0 70 70" xml:space="preserve">
<g id="Calque_1">
</g>
<g id="Calque_2">
</g>
<g id="Calque_3">
	<g>
		<g>
			<path fill="#FFFFFF" d="M35,0C15.7,0,0,15.7,0,35c0,19.3,15.7,35,35,35c19.3,0,35-15.7,35-35C70,15.7,54.3,0,35,0z M40.7,48.3
				c0.4,0.4,0.4,1,0,1.4c-0.4,0.4-1,0.4-1.4,0l-13-13.5c-0.4-0.4-0.4-1,0-1.4l13-13.5c0.4-0.4,1-0.4,1.4,0c0.4,0.4,0.4,1,0,1.4
				L28.4,35.5L40.7,48.3z"/>
		</g>
	</g>
</g>
<g id="Calque_4">
</g>
<g id="Calque_5">
</g>
</svg>
