<?xml version="1.0" encoding="utf-8"?>
<!-- Generator: Adobe Illustrator 18.1.1, SVG Export Plug-In . SVG Version: 6.00 Build 0)  -->
<svg version="1.1" xmlns="http://www.w3.org/2000/svg" xmlns:xlink="http://www.w3.org/1999/xlink" x="0px" y="0px"
	 viewBox="0 0 45 30" enable-background="new 0 0 45 30" xml:space="preserve">
<g id="Calque_1">
</g>
<g id="Calque_2">
</g>
<g id="Calque_3">
	<ellipse opacity="0.75" fill="#FFFFFF" cx="22.5" cy="13.9" rx="11.1" ry="8.9"/>
	<path fill="#FFFFFF" d="M15,30h15c8.3,0,15-6.7,15-15v0c0-8.3-6.7-15-15-15L15,0C6.7,0,0,6.7,0,15v0C0,23.3,6.7,30,15,30z
		 M15.7,13.6l5-5c0.5-0.5,1.1-0.7,1.8-0.7c0.7,0,1.3,0.3,1.8,0.7l5,5c1,1,1,2.6,0,3.5c-1,1-2.6,1-3.5,0l-3.2-3.2l-3.2,3.2
		c-1,1-2.6,1-3.5,0C14.8,16.2,14.8,14.6,15.7,13.6z"/>
</g>
<g id="Calque_4">
</g>
<g id="Calque_5">
</g>
</svg>
