<?xml version="1.0" encoding="utf-8"?>
<!-- Generator: Adobe Illustrator 18.1.1, SVG Export Plug-In . SVG Version: 6.00 Build 0)  -->
<svg version="1.1" xmlns="http://www.w3.org/2000/svg" xmlns:xlink="http://www.w3.org/1999/xlink" x="0px" y="0px"
	 viewBox="0 0 70 70" enable-background="new 0 0 70 70" xml:space="preserve">
<g id="Calque_1">
</g>
<g id="Calque_2">
</g>
<g id="Calque_3">
	<g>
		<g>
			<path fill="#FFFFFF" d="M35,0C15.7,0,0,15.7,0,35c0,19.3,15.7,35,35,35c19.3,0,35-15.7,35-35C70,15.7,54.3,0,35,0z M43.7,35.2
				l-13,13.5c-0.4,0.4-1,0.4-1.4,0c-0.4-0.4-0.4-1,0-1.4l12.3-12.8L29.3,21.7c-0.4-0.4-0.4-1,0-1.4c0.4-0.4,1-0.4,1.4,0l13,13.5
				C44.1,34.2,44.1,34.8,43.7,35.2z"/>
		</g>
	</g>
</g>
<g id="Calque_4">
</g>
<g id="Calque_5">
</g>
</svg>
